/* XPM */
static char *_162281f694e4137a91bb13cab54e109261tUDmGxUow4TCR[] = {
/* columns rows colors chars-per-pixel */
"32 32 209 2 ",
"   c #010001",
".  c #0B0201",
"X  c #010900",
"o  c #0D0904",
"O  c #01010A",
"+  c #0B0B0A",
"@  c #120000",
"#  c #1D0100",
"$  c #140D04",
"%  c #1D0C04",
"&  c #170F09",
"*  c #0E1108",
"=  c #171003",
"-  c #191303",
";  c #12150C",
":  c #1D150C",
">  c #000011",
",  c #181B12",
"<  c #220000",
"1  c #250700",
"2  c #2B0E00",
"3  c #340A00",
"4  c #231C0B",
"5  c #291B08",
"6  c #301F05",
"7  c #231A11",
"8  c #292205",
"9  c #23200F",
"0  c #2C2709",
"q  c #34230C",
"w  c #352A0E",
"e  c #272111",
"r  c #2C2518",
"t  c #372D12",
"y  c #3A2B11",
"u  c #3A3015",
"i  c #460300",
"p  c #510D00",
"a  c #471500",
"s  c #461802",
"d  c #541B00",
"f  c #461B12",
"g  c #6C1C00",
"h  c #631C08",
"j  c #462804",
"k  c #5D2400",
"l  c #563105",
"z  c #402F1B",
"x  c #502715",
"c  c #483515",
"v  c #47361B",
"b  c #47391F",
"n  c #503D1D",
"m  c #6E2C01",
"M  c #67200C",
"N  c #732402",
"B  c #782C0A",
"V  c #753500",
"C  c #773802",
"Z  c #7A3800",
"A  c #7B3308",
"S  c #6A2615",
"D  c #702915",
"F  c #633C13",
"G  c #5A2E21",
"H  c #4F3E2E",
"J  c #5D3828",
"K  c #453B32",
"L  c #732F22",
"P  c #613826",
"I  c #7C4200",
"U  c #7F4C1F",
"Y  c #7C531F",
"T  c #554021",
"R  c #594425",
"E  c #584534",
"W  c #644D2E",
"Q  c #634B31",
"!  c #685134",
"~  c #725533",
"^  c #7A5545",
"/  c #813A06",
"(  c #873A18",
")  c #834403",
"_  c #894508",
"`  c #964900",
"'  c #9B4A00",
"]  c #99490A",
"[  c #885900",
"{  c #9C540A",
"}  c #A65400",
"|  c #96670B",
" . c #B56200",
".. c #AD6119",
"X. c #AA6D1C",
"o. c #B16112",
"O. c #BC6A14",
"+. c #814E21",
"@. c #9D4F2B",
"#. c #885A26",
"$. c #915731",
"%. c #A85521",
"&. c #A15C33",
"*. c #95672B",
"=. c #89653A",
"-. c #AB6B2E",
";. c #B36121",
":. c #BF6B2B",
">. c #B87325",
",. c #A3713E",
"<. c #BB7B3E",
"1. c #C7740C",
"2. c #CF6A10",
"3. c #D46F15",
"4. c #CB7218",
"5. c #C3752A",
"6. c #985542",
"7. c #956E45",
"8. c #9B764A",
"9. c #B06B42",
"0. c #A47240",
"q. c #AE7C47",
"w. c #A16B51",
"e. c #A87050",
"r. c #B17751",
"t. c #CA7743",
"y. c #D7871A",
"u. c #E88C07",
"i. c #F19717",
"p. c #DAB212",
"a. c #E1BC0C",
"s. c #FFA31E",
"d. c #CC873C",
"f. c #E6872D",
"g. c #F18C32",
"h. c #FCA321",
"j. c #FFA628",
"k. c #E9AF34",
"l. c #F7AA38",
"z. c #ECB439",
"x. c #F1B93E",
"c. c #F6D121",
"v. c #FCD737",
"b. c #FCEF2E",
"n. c #FFE838",
"m. c #FFFC3B",
"M. c #BF864F",
"N. c #BA875A",
"B. c #B78F5B",
"V. c #BF915D",
"C. c #D79F48",
"Z. c #C18E59",
"A. c #CB975E",
"S. c #E29449",
"D. c #CDAA4C",
"F. c #D8AB4D",
"G. c #CDAA50",
"H. c #DCB953",
"J. c #E5A25A",
"K. c #E7AD59",
"L. c #C79961",
"P. c #D79E65",
"I. c #ED9A66",
"U. c #D6A36E",
"Y. c #DFB36A",
"T. c #E7A767",
"R. c #F5A161",
"E. c #E6BA71",
"W. c #FFBD72",
"Q. c #FCC247",
"!. c #E1CA5A",
"~. c #FFC856",
"^. c #FAD559",
"/. c #E8EE4E",
"(. c #EDF353",
"). c #FBF858",
"_. c #EEC961",
"`. c #E8CB65",
"'. c #F8C46B",
"]. c #ECD56B",
"[. c #F2D06E",
"{. c #F1DA6A",
"}. c #F2CF73",
"|. c #FFC972",
" X c #FCD875",
".X c #F4EF60",
"XX c #FAF963",
"oX c #FEE877",
"OX c #F7F777",
"+X c #FFFF75",
"@X c #EAB782",
"#X c #E8C782",
"$X c #E6CE81",
"%X c #E9CC83",
"&X c #FCC782",
"*X c #EAD784",
"=X c #FFD887",
"-X c #F8D88C",
";X c #FBDD95",
":X c #FFEF85",
">X c #FFF184",
",X c #FEFF82",
"<X c #FEED95",
"1X c #FFE59D",
"2X c #FFE99C",
"3X c #FFEFA0",
"4X c #FFF8A5",
"5X c #FFF9B3",
"6X c #FFFDB9",
/* pixels */
"                                                                ",
"                                                                ",
"                    O O O O O O   O   O   O               . . . ",
"                    O O O O O   O O O O O O         o o o o o o ",
"                                              . o $ = - - - - - ",
"                                            . o $ $ 4 4 4 4 9 9 ",
"                                        . o $ $ - 4 6 6 q w y y ",
"                  + o o o o o o o o o o $ & : 4 5 5 w y z v b b ",
"                . . . . . . . . . . . . @ @ # 1 2 2 s j j l F F ",
"            o r K K H H H H H H H H E E E E Q ! ~ ~ =.=.8.8.7.=.",
"    X X < s ( ( %.;.....o.o.o.o.o.o.O.O.1.y.i.h.i.i.a.n.b.b.v.p.",
"    X X 3 G B A ] ] ` ` ` ` ` ` ` ` ' }  .1.u.s.h.j.c.n.m.m.).v.",
"    < 3 h D N N / / C C C C C C C C / _ { ..4.f.f.g.l.~.^.^.^.Q.",
"    < f M h g g A A V V V V V V V V Z ) ` {  .4.2.3.y.l.z.x.Q.k.",
"    i S N N m A U +.Y Y Y Y Y Y Y Y #.#.*.*.-.<.>.5.d.J.Y.E._.H.",
"    p L ( @.&.9.N.N.B.B.B.B.B.B.B.B.V.L.A.L.P.T.S.S.J.W.&X=X X_.",
"    3 P $.e.Z.U.#X#X$X$X$X$X$X$X%X%X%X%X*X-X;X;X`.`.*X<X5X5X:X].",
"    < x $.r.P.@X;X1X2X2X2X2X2X2X1X1X1X1X3X4X5X5XoX X<X4X6X6X>X].",
"    . % S 6.t.I.'.|.}.}.}.}.}.}.[.[.[. XoX>X+X+XXX).OX,X,X,XOX^.",
"    @ . i S %.t.C.F.G.G.D.D.D.D.D.D.D.H.!.{..X.X(./.OX,X,X,XoX^.",
"    X X . & J ^ w.e.0.0.0.0.,.,.,.,.0.q.M.A.J.T.K.K.'. X=X=X&XR.",
"    X X . . # 1 a a a a a a a a a a a s d k m C I ) [ | X.>.:.;.",
"                                        X o * , e r c n T R W ! ",
"                . . . . . . + + + +   . o + ; , e r j c v n T R ",
"    O O O O     O   O O O O O O O O > > . + $ = : 7 0 w t u z z ",
"    O O O O     O O O O O O O O O O > >     . o $ : 8 8 8 8 q q ",
"                                                + + : : : : : : ",
"                                                  + $ $ $ = = = ",
"                                                    + +   + o + ",
"                                                                ",
"                                                    O O       O ",
"                                                    O O       O "
};
