/* XPM */
static char *fire1699617958[] = {
/* columns rows colors chars-per-pixel */
"32 32 193 2 ",
"   c #000000",
".  c #0C0000",
"X  c #010C00",
"o  c #130000",
"O  c #1B0201",
"+  c #100E00",
"@  c #1C0C00",
"#  c #011400",
"$  c #001900",
"%  c #151400",
"&  c #1C1400",
"*  c #240301",
"=  c #2C0102",
"-  c #220D01",
";  c #280E00",
":  c #340103",
">  c #3B0103",
",  c #3D0C02",
"<  c #231300",
"1  c #221901",
"2  c #002401",
"3  c #440103",
"4  c #4B0202",
"5  c #4C0803",
"6  c #520002",
"7  c #5C0104",
"8  c #491304",
"9  c #541A02",
"0  c #610204",
"q  c #6D0203",
"w  c #690904",
"e  c #720002",
"r  c #7C0004",
"t  c #740B03",
"y  c #6A1403",
"u  c #6F1802",
"i  c #731204",
"p  c #711903",
"a  c #791C03",
"s  c #762503",
"d  c #7A2A04",
"f  c #693803",
"g  c #860203",
"h  c #890003",
"j  c #8B0A02",
"k  c #930003",
"l  c #9F0405",
"z  c #970902",
"x  c #851403",
"c  c #981103",
"v  c #BC0002",
"b  c #AB1B05",
"n  c #BA1504",
"m  c #822003",
"M  c #8A2303",
"N  c #8E2A03",
"B  c #932303",
"V  c #982105",
"C  c #982F03",
"Z  c #8D3B05",
"A  c #9D3404",
"S  c #933904",
"D  c #9C3B05",
"F  c #A22204",
"G  c #AB2405",
"H  c #AC2F05",
"J  c #B92F05",
"K  c #A63305",
"L  c #AE3104",
"P  c #A43C04",
"I  c #AB3B05",
"U  c #AA3E08",
"Y  c #B23204",
"T  c #C50008",
"R  c #D00004",
"E  c #D60D06",
"W  c #C51B05",
"Q  c #C52306",
"!  c #C13804",
"~  c #CB3A06",
"^  c #D63A05",
"/  c #E23605",
"(  c #EF3205",
")  c #F3340A",
"_  c #9D4905",
"`  c #A24204",
"'  c #AA4405",
"]  c #AC4E04",
"[  c #AA4908",
"{  c #B34405",
"}  c #BE4F06",
"|  c #A7580A",
" . c #B55205",
".. c #BF5406",
"X. c #C04007",
"o. c #CC4507",
"O. c #C74907",
"+. c #C64C08",
"@. c #CC4F08",
"#. c #D44205",
"$. c #DC4506",
"%. c #D34B06",
"&. c #DC4E06",
"*. c #C65307",
"=. c #CE5006",
"-. c #C45D06",
";. c #CB5E04",
":. c #DB5507",
">. c #D55A06",
",. c #DA5508",
"<. c #D55D08",
"1. c #E24B07",
"2. c #FA4807",
"3. c #F94408",
"4. c #EE5E05",
"5. c #EC5908",
"6. c #FA5107",
"7. c #F75A07",
"8. c #CF6407",
"9. c #CF6907",
"0. c #CB690C",
"q. c #DC6406",
"w. c #DF6F06",
"e. c #D46109",
"r. c #DE6109",
"t. c #DE690A",
"y. c #DD7707",
"u. c #DC7908",
"i. c #E36606",
"p. c #E36A07",
"a. c #ED6D07",
"s. c #EB6208",
"d. c #EE6A08",
"f. c #F56507",
"g. c #F86607",
"h. c #F06D05",
"j. c #F96807",
"k. c #F56308",
"l. c #FB6C08",
"z. c #E57306",
"x. c #EC7707",
"c. c #E47A07",
"v. c #EC7A07",
"b. c #ED740A",
"n. c #F37506",
"m. c #FA7607",
"M. c #F57907",
"N. c #FC7C07",
"B. c #FB7209",
"V. c #F57D09",
"C. c #FA7D08",
"Z. c #D8880B",
"A. c #ED8A06",
"S. c #EE8E0E",
"D. c #F28407",
"F. c #FC8407",
"G. c #FA8D07",
"H. c #F48408",
"J. c #F98208",
"K. c #F38C0A",
"L. c #FD8C09",
"P. c #E29707",
"I. c #E89607",
"U. c #F49506",
"Y. c #FC9206",
"T. c #F69C07",
"R. c #FB9D07",
"E. c #F5920A",
"W. c #FA9509",
"Q. c #F69C09",
"!. c #FB9B09",
"~. c #E5A40A",
"^. c #F7A405",
"/. c #FCA307",
"(. c #FCAC06",
"). c #F6A60B",
"_. c #FDA30B",
"`. c #FCAC0A",
"'. c #FCB406",
"]. c #FDBC05",
"[. c #FBB308",
"{. c #FABE0A",
"}. c #F3AC16",
"|. c #FDB914",
" X c #FCC505",
".X c #FDCA05",
"XX c #FCCF0D",
"oX c #FED404",
"OX c #FEDA04",
"+X c #FCD40A",
"@X c #FFCA12",
"#X c #FFC31A",
"$X c #FEE41A",
/* pixels */
"                                                                ",
"                    O * * o                                     ",
"              . - @         % - -                               ",
"          . @ X     3 q p >         @                           ",
"        . &   O Z 9.H.K.H.v.8.-.Z     < .                       ",
"      . 1   4 Z.`.Q.).[.[.(.(.T.K.y.a   + o                     ",
"    . %   | }.].T.D.C.F.W.l.m.F.J.C.V.`   % O . .               ",
"    &   P _.#XM.x.x.7.f./ / ( 2.F.W.!.C._             . .       ",
". &   F '. X(.H.E.b.1.%.~ $.g.Y.Y.].'.f.s._ u 4 =               ",
"O 2 = S.$XoX].c.:.r.t.<.=.#.f.R.[.].(.B.Q.Z.[ ] S s y 6 3 =     ",
"&   ] @X$X^.T e.<.%.x.H.=.v.].(.(.(.[.R.{.~.9. .D C N m i 7 4 > ",
"    ~.oX+Xs.' [ J X.b I r +.P.p.A.^.C.!.]._.o.V x A D N i 7 3 O ",
"  f Q. X+Xs.o.@.e.#.l l L G Q r.p.V.G./..X'.:.z A P M q 7 7 7 : ",
"  6 K.OX`.5.,.+.{ n $.s.H H k./.W.U..X'..XoXH.>.-.[ P U A B x q ",
"$ 4 w.OX`.^ L M 0.u.x.l.a.c.A.L.(.oXOX X/..XY.&. .U D d 8 8 5 > ",
"# : r.'.^.k.p.! O.x.z.{ ~ m.'.B.M.G.N./. X+X!.%.[ x 7 > 3 :     ",
"+   *.L.W.'.J.d.i.x.o.r 7 W 7.g.j.2.3.g.Q.}.K.t...' P { I M i 3 ",
";   t W.[..XR.!././.D.a.h.r.4.G..XOX'.G.L.W.=.} 8.;.` d s s y 3 ",
"o #   q.'.Y.Q.[.R.D.v.>.i.a.G.m.A.].].(._.b.K x t a e 3         ",
"  *   g 6.C.`.V.d.Y.i.G W &.^ R R ) F./.K.~ g y t 3 * 5 > .   . ",
"    O   k C.]. XM.^._.F.N.j.Y.U.R./.W._.n.v x O . =     o .     ",
"      @   N H.[.^.1.#.M.T.C.].OXoX+X|.L.%.k j :     . o         ",
"      . -   V b.'.].I.I.^. XoX+XXX`.m.1.L 5 0 3   o             ",
"        . , y Y w.P.(.'.]..XOXoX/.g.n M 9   O =   .             ",
"                6 3 r ~ *.v._.a.E ! c 7     .                   ",
"          . O X # #       h J B a e q w =   .                   ",
"              . O O - X $ $ >   4 w 4 o   .                     ",
"                      o o o X   * =                             ",
"                            . .     .                           ",
"                                  .                             ",
"                                                                ",
"                                                                "
};
