/* XPM */
static char *a90becf852564a43b725e5a6f8f470520y07jgnKdk3Iw4HO[] = {
/* columns rows colors chars-per-pixel */
"28 32 184 2 ",
"   c None",
".  c #4E8D39",
"X  c #4D923C",
"o  c #539137",
"O  c #54AC2B",
"+  c #5BB93E",
"@  c #4EC63C",
"#  c #51C43D",
"$  c #52CE3D",
"%  c #4FD43E",
"&  c #55E23E",
"*  c #599F42",
"=  c #5AAC46",
"-  c #5EA44A",
";  c #5BB546",
":  c #59B847",
">  c #5BB54A",
",  c #5CBC4A",
"<  c #5CBD51",
"1  c #62B346",
"2  c #62B843",
"3  c #61B94E",
"4  c #62BC50",
"5  c #6DB35B",
"6  c #54C544",
"7  c #5DC747",
"8  c #54CE44",
"9  c #58CF45",
"0  c #5CC44D",
"q  c #55CC49",
"w  c #5DCC4D",
"e  c #55C34B",
"r  c #55D245",
"t  c #5ADA47",
"y  c #5BD34C",
"u  c #56DB4C",
"i  c #5DDB4D",
"p  c #58D944",
"a  c #5FC750",
"s  c #5ECD52",
"d  c #5DD553",
"f  c #5DDB52",
"g  c #5CDD58",
"h  c #66C14F",
"j  c #6AC34F",
"k  c #61CA4C",
"l  c #60D94D",
"z  c #63CB50",
"x  c #66CF5E",
"c  c #62C553",
"v  c #61D455",
"b  c #68D650",
"n  c #62DC54",
"m  c #6BDE56",
"M  c #64D35C",
"N  c #65DD5C",
"B  c #68DD5C",
"V  c #70D65B",
"C  c #5EE14A",
"Z  c #5EEC4C",
"A  c #5EE255",
"S  c #5FE059",
"D  c #5EF753",
"F  c #61F44F",
"G  c #62E154",
"H  c #63EA55",
"J  c #65E45C",
"K  c #69E55D",
"L  c #64EB5C",
"P  c #68EE5C",
"I  c #65F15D",
"U  c #69F55C",
"Y  c #6CFE5D",
"T  c #75FD5C",
"R  c #69D663",
"E  c #66DD61",
"W  c #6ADE65",
"Q  c #6FD768",
"!  c #6CDD6B",
"~  c #71D765",
"^  c #65E363",
"/  c #6BE464",
"(  c #67EA65",
")  c #6BEB64",
"_  c #6DE469",
"`  c #6DEC6A",
"'  c #70E464",
"]  c #72EE67",
"[  c #71E56D",
"{  c #74EC6E",
"}  c #6DF264",
"|  c #6EFB61",
" . c #6EF46A",
".. c #72FC65",
"X. c #73F36C",
"o. c #76FB6B",
"O. c #6FE672",
"+. c #6FEC71",
"@. c #72E672",
"#. c #74EB72",
"$. c #75E37B",
"%. c #7DE178",
"&. c #77EF7A",
"*. c #7AEC7B",
"=. c #75F372",
"-. c #7AF375",
";. c #76F873",
":. c #7BFB75",
">. c #76F179",
",. c #7CF47C",
"<. c #7BFA7B",
"1. c #80D77D",
"2. c #81FF75",
"3. c #81F47E",
"4. c #82FC7B",
"5. c #89FD7D",
"6. c #75E280",
"7. c #76EA82",
"8. c #7BEC83",
"9. c #7FF182",
"0. c #84ED8C",
"q. c #84F482",
"w. c #88F785",
"e. c #85FB84",
"r. c #89FC85",
"t. c #84F389",
"y. c #8BF68D",
"u. c #85FB8B",
"i. c #8BFB8B",
"p. c #91FC8F",
"a. c #88EF90",
"s. c #8BF394",
"d. c #8DFB92",
"f. c #8DF69A",
"g. c #8FFB9A",
"h. c #91F696",
"j. c #94FB94",
"k. c #9BFC95",
"l. c #92F59B",
"z. c #98F79C",
"x. c #94FB9D",
"c. c #9BFB9B",
"v. c #A2FD9F",
"b. c #8EFEA0",
"n. c #94F7A1",
"m. c #9DF6A3",
"M. c #94FDA1",
"N. c #9CFCA3",
"B. c #9CFDAB",
"V. c #A3FCA3",
"C. c #A4FCAB",
"Z. c #ACFCAD",
"A. c #A9F7B3",
"S. c #A4FEB3",
"D. c #ADFDB3",
"F. c #ACFFB9",
"G. c #B3FDB5",
"H. c #B4FCBC",
"J. c #BAFDBD",
"K. c #AFFFC0",
"L. c #B7FFC2",
"P. c #B3FFC3",
"I. c #BBFEC3",
"U. c #B7FFC8",
"Y. c #BDFFCB",
"T. c #C2FDC6",
"R. c #C2FDC7",
"E. c #C4FDCB",
"W. c #C9FCCA",
"Q. c #C6FED1",
"!. c #C7FDD5",
"~. c #C9FFD5",
"^. c #CDFED4",
"/. c #CEFDD9",
"(. c #D2FED7",
"). c #D5FEDD",
"_. c #DAFDDF",
"`. c #DEFFE7",
"'. c #DCFEE4",
"]. c #DEFFE9",
"[. c #DEFEE9",
"{. c #E1FDE9",
"}. c #E9FEEE",
"|. c #EDFEF4",
/* pixels */
"                    [ B n N B n _ Q                     ",
"                j b }  .( ( ^ A I  .z 3                 ",
"            o v X.>.t.s.s.f.f.s.t.#.g t , .             ",
"          * / ) +.[ / K =.X.=.>.*.s.f.8.u w X           ",
"        - ] ) ( P  .;.X.4.N.i.;. .L #.l.f.g w X         ",
"      5 { N e.=.i.d.r.i.e.J.Z.p.-.<.o.H s.M.f w .       ",
"      V y / ,.x.~.D.4.i.i.i.c.w.4.r.<.=.H l.s.r 0       ",
"    2 G K <.-.3.z.j.r.4.i.i.r.:.:.e.,.e.;.) B.O.9 =     ",
"    m i.g.,.,.<.i.d.V.L.Q.~.E.D.i.e.r.r.u.L f.f.$ z     ",
"  + #.C.s.X.3.e.d.L./.W.J.H.W.].R.4.r.d.i.K &.B.d w >   ",
"  k d #.=.-.;.x.Q.D.4.o.5.V.i.j.`.H.:.i.i.` ( B.! 6 ,   ",
"  / ` ` e.I M.!.j.e.G.k.v.W.(.p.C.`.r.i.q.( J B.$.6 s   ",
", / >.( H e.E.c.V.T.T.4.j.j.i.2.k.`.c.e.i.-.A B.6.# w > ",
", / >./ L P.m.o.j.H.r.i.I.(.L.j.R.`.e.o.i.,.L B.$.@ 0 : ",
"M N E f l.U.=.J.p.5.e.^.}.T.).'._.V.| 4.4.X.=.S.! d e : ",
"! W w A H.z.j.E.i...Z.|.Z.T 5.c.r.4.r.r.p.=.u.B.d _ e : ",
"R W y *.P.,.N.Z.p.Y I.{.r.2.c.v.c.k.c.4.U I B.s.% / M : ",
"M v 8 a.F.} =.r.r.Y Z.].j.:.V.Z.V.V.i.4.} u.S.^ p E [ : ",
"c d 8 l.B.` X.i.....4.'.T.:.o.k.k.i.z.D u.K.0.u v s M : ",
"~ N $ n.x.d.q.V.j.4.r.V.`.I.u.:...| <.B.U.l.u d v R E : ",
"  v 8 l.x.,.h.y.q.4.D.i.z.).).I.D.P.Y.I.0.u g d N @./   ",
"  0 8 f.f.A z.,.Z e.:.:.X.=.N.G.H.A.s.L J { / y _ *.M   ",
"  4 r s.f.p 3.L j.L.P i.j.X.F X.L L L ` #.-./ q [ #.<   ",
"    9 8.M.i K y.z.C.) q.#.X.X.y.j.#.) d.[ f N q W W     ",
"    + O.M.g / B.#.N.y.& H D.h.{ ,.C -.{ i / ,.s v 4     ",
"      B b._ % s.S.l.@.n N.m.M.{ C i s.i./ d [ / z       ",
"      O g.7.@ 9.$.$ r n z.h.M.*.i n d.d.&.q / B 1       ",
"        1.d.q v 9 d W r ' N./ f #.y _ u./ 6 / ;         ",
"          %.K 0 6 #.q.8 v / r G u.J r d d y 1           ",
"            h a E u.@.q d f L Z e.>.i i 7 2             ",
"                x #./ ) )  . .Z :.<.l k                 ",
"                    w N S L ( f G J                     "
};
