/* XPM */
static char *result[] = {
/* columns rows colors chars-per-pixel */
"32 32 206 2 ",
"   c #020202",
".  c #0A0504",
"X  c #0A0907",
"o  c #02050A",
"O  c #040A0A",
"+  c #0B0B0A",
"@  c #050809",
"#  c #130201",
"$  c #140A05",
"%  c #110C09",
"&  c #1B0905",
"*  c #04100F",
"=  c #1A130E",
"-  c #13120F",
";  c #000216",
":  c #0C1313",
">  c #05191B",
",  c #121211",
"<  c #1B1512",
"1  c #1B1914",
"2  c #1D1C1B",
"3  c #161719",
"4  c #240B06",
"5  c #2B0203",
"6  c #381809",
"7  c #241A14",
"8  c #231E1B",
"9  c #2B1C19",
"0  c #2B1514",
"q  c #371D12",
"w  c #1C221D",
"e  c #25211E",
"r  c #2C231D",
"t  c #31241B",
"y  c #392416",
"u  c #101B27",
"i  c #072828",
"p  c #1A2625",
"a  c #143636",
"s  c #242422",
"d  c #26272B",
"f  c #2C2823",
"g  c #342B24",
"h  c #392D26",
"j  c #38322C",
"k  c #2A3838",
"l  c #323332",
"z  c #393934",
"x  c #430000",
"c  c #461F12",
"v  c #651612",
"b  c #4B220A",
"n  c #442108",
"m  c #53250B",
"M  c #46281A",
"N  c #5C2C15",
"B  c #5E2B19",
"V  c #582817",
"C  c #5C321C",
"Z  c #5E3011",
"A  c #62341B",
"S  c #6C341C",
"D  c #7D391F",
"F  c #73381D",
"G  c #672614",
"H  c #462C24",
"J  c #532B20",
"K  c #403129",
"L  c #5C3522",
"P  c #533223",
"I  c #4D3933",
"U  c #633521",
"Y  c #633924",
"T  c #6D3C22",
"R  c #693527",
"E  c #713621",
"W  c #733C24",
"Q  c #7A3822",
"!  c #4F473D",
"~  c #57463A",
"^  c #65412D",
"/  c #7B4326",
"(  c #7A462A",
")  c #75432A",
"_  c #724837",
"`  c #165857",
"'  c #274441",
"]  c #314741",
"[  c #2D5458",
"{  c #395955",
"}  c #177475",
"|  c #297A77",
" . c #367373",
".. c #316766",
"X. c #5F4F45",
"o. c #525251",
"O. c #6F4C41",
"+. c #5E605D",
"@. c #67635F",
"#. c #5A5B61",
"$. c #5E6060",
"%. c #656569",
"&. c #7A726E",
"*. c #797777",
"=. c #883A1E",
"-. c #843B24",
";. c #893C24",
":. c #874326",
">. c #8B482B",
",. c #944D2A",
"<. c #994E2D",
"1. c #96442A",
"2. c #8F512D",
"3. c #9F542F",
"4. c #97532F",
"5. c #894935",
"6. c #9D4A35",
"7. c #8E5232",
"8. c #865032",
"9. c #9F5C3A",
"0. c #995536",
"q. c #A1512A",
"w. c #A74D34",
"e. c #A45D35",
"r. c #A95638",
"t. c #A45C3B",
"y. c #AB5E3D",
"u. c #A6553A",
"i. c #B15D3C",
"p. c #B4563B",
"a. c #B25D25",
"s. c #A4613A",
"d. c #AD643C",
"f. c #AC6337",
"g. c #B8673F",
"h. c #C5663D",
"j. c #925440",
"k. c #A0574A",
"l. c #9C6247",
"z. c #8E6351",
"x. c #83705D",
"c. c #AA6644",
"v. c #A76642",
"b. c #B36641",
"n. c #BC6E42",
"m. c #BC6D49",
"M. c #B66943",
"N. c #BF754B",
"B. c #BD7145",
"V. c #BD7354",
"C. c #8D6E64",
"Z. c #857671",
"A. c #AE7963",
"S. c #C66740",
"D. c #CA6C45",
"F. c #C66D4A",
"G. c #C26B47",
"H. c #C47543",
"J. c #C3754A",
"K. c #CA744C",
"L. c #CC7A4C",
"P. c #CA7449",
"I. c #D37E4C",
"U. c #D07348",
"Y. c #CB7E55",
"T. c #D27D52",
"R. c #36807E",
"E. c #85837F",
"W. c #BD866D",
"Q. c #CD855B",
"!. c #D48154",
"~. c #D5835A",
"^. c #DA845C",
"/. c #DB895C",
"(. c #D68759",
"). c #E08C5F",
"_. c #DC8B63",
"`. c #DA936A",
"'. c #DE9974",
"]. c #CC8D66",
"[. c #E08F63",
"{. c #E19776",
"}. c #3D7E80",
"|. c #737980",
" X c #2B8684",
".X c #658B8F",
"XX c #68A5A4",
"oX c #76C2CA",
"OX c #8B9094",
"+X c #939391",
"@X c #838383",
"#X c #AA978C",
"$X c #B4A394",
"%X c #A8A9A6",
"&X c #B0AFAF",
"*X c #B6B7B9",
"=X c #BDB3AA",
"-X c #C1B1A2",
";X c #C5C5C4",
":X c #D7D9DB",
">X c #D7D8D8",
",X c #E5E5E4",
"<X c #EDEEEF",
"1X c #FEFEFE",
"2X c #F5F6F7",
"3X c None",
/* pixels */
"3X3X3X3X3X3X3X3X3X3X3X3X3X3X3X3X@X&X:X,X3X3X3X3X3X3X3X3X3X3X3X3X",
"3X3X3X3X3X3X3X3X3X3X3X3X3X3X+ + +   d #.*X<X3X3X3X3X3X3X3X3X3X3X",
"3X3X3X3X3X3X3X3X3X3X3X3X  X @ X   o 1 $   %.:X3X3X3X3X3X3X3X3X3X",
"3X3X3X3X3X3X3X3X3X3X*.  ,   3 X r g 7 K z   OX2X1X3X3X3X3X3X3X3X",
"3X3X3X3X3X3X3X3X3X%Xe     - r - g f r j r d   $.1X3X3X3X3X3X3X3X",
"3X3X3X3X3X3X3X3X3X%.  3   e r w 9 0 q h t 7 l   *X3X3X3X3X3X3X3X",
"3X3X3X3X3X3X3X3X+X  w O =             1 9 7 f   |.2X3X3X3X3X3X3X",
"3X3X3X3X3X3X3X*X    X $   A s.s.s.7.W 6     < 8 o *X3X3X3X3X3X3X",
"3X3X3X3X3X3X;Xl   , $   N h./.[.).^.T.g.<.-.V 9   o.3X3X3X3X3X3X",
"3X3X3X3X3X3X*.  3       f.I.(./.^.^.T.I.U.S.y.5.9 d >X3X3X3X3X3X",
"3X3X3X3X3X8   ,   $   / H.!./._.T.!.T.U.U.D.S.c._   >X3X3X3X3X3X",
"3X3X3X3X+.  j $ X O q M.I.J.Q./.).T.!.U.H.D.S.b.O.  #.<X3X3X3X3X",
"3X3X3X3X@.  f   $   8.!.9.y , ( P.!.!.L.P.G.M.t.O.>   ;X1X3X3X3X",
"3X3X3X%Xl     X   6 c.B.s.B.f.C   ) N.P.m.m.g.e.O.o 2 +X,X1X3X3X",
"3X3X3X%.  e < $   T N.J.B.e.3.e.( W d.b.e.L Y q I 2   l E.3X3X3X",
"3X3XXX8 X g % 4   >.P.b.P u ; m ,.e.e.0./ q M M h , , ' }.3X3X3X",
"3X3Xi   1 =   5 o ;.K.a.#X$X  X.4.d.c.,.F A x N ^ o o #  X3X3X3X",
"3X| 8   X     6 b ;.G._.W.#Xx.-Xd.H.m.7.b 3 @.j P = O # ..3X3X3X",
"3X .`   O o   4 n -.p.T.^.m.A.W.Q.(.Q.8.~ t =X&.5 3 : .  .oX3X3X",
"3X Xa   O     @   S 6.D._._.!.I.`.'.Q.9.z.C.Z.I H   X % 2 .X3X3X",
"3X Xk   @     #   B -.w.F.Y.~.(.`.`.K.c.n.b.w.5.H   . O # i 3X3X",
"3X| w   +   o .   c Q -.w.r.r.i.Y.{.U.u.J.K.m.5.0   +   p z [ 3X",
"3X'   @           $ S =.:.v :.N.u.u.i.5.5.6.5.R   . X . : { k 3X",
"3X=     +       .   b S ,.s.c.Q.].v.S L S G R 0     + +   , , 8 ",
"3X3   @ <   @     o & Z :.H.Q.v.j.j.5.R Y E M   .   @ .   + s f ",
"R.p . X               6 F f.h.G.k.v J R ) V   X       . X @ 2 8 ",
"y = X X       X ,   . n b >.d.f.w.;.W ( L               @ O # [ ",
"o.=           X %     N m N 2.d.s.W W Y @   .     @   @   @ X p ",
"~ <         X @   .   S Q V m W :.W L $   .     .       @   + . ",
"] $ -         $ & $   3.,.T B m V U y   .       X     @   . X + ",
"| # s X @           V e.n.1.E A Y Y P & o .               + X + ",
"} . >       @ V E <.h.3.j.V.=.E S Y L y < 4 4 4 X   .         @ "
};
