/* XPM */
static char *b583da58eb254e16d53d987ee5c6e234ZDBwEyaVlPzefoTs[] = {
/* columns rows colors chars-per-pixel */
"54 32 212 2 ",
"   c None",
".  c #010100",
"X  c #0C0805",
"o  c #080607",
"O  c #1A0400",
"+  c #140E0A",
"@  c #160805",
"#  c #16100C",
"$  c #1A130E",
"%  c #001112",
"&  c #1D1511",
"*  c #171613",
"=  c #290900",
"-  c #271506",
";  c #211711",
":  c #231A14",
">  c #281D16",
",  c #331D13",
"<  c #391F13",
"1  c #351C0D",
"2  c #2D221A",
"3  c #352213",
"4  c #34251C",
"5  c #39281D",
"6  c #362821",
"7  c #3D2C21",
"8  c #481E00",
"9  c #5C1C06",
"0  c #630000",
"q  c #601E00",
"w  c #422314",
"e  c #4B2B1C",
"r  c #452D1C",
"t  c #582E10",
"y  c #772F00",
"u  c #7E3100",
"i  c #672A17",
"p  c #6A341D",
"a  c #753619",
"s  c #692300",
"d  c #473528",
"f  c #573827",
"g  c #583B30",
"h  c #7D3E23",
"j  c #743C21",
"k  c #6B3B2A",
"l  c #66402C",
"z  c #6F412C",
"x  c #7E4226",
"c  c #7B432C",
"v  c #6A4D3C",
"b  c #774E37",
"n  c #75543C",
"m  c #56534D",
"M  c #705D50",
"N  c #6A5346",
"B  c #7A6758",
"V  c #7C6E60",
"C  c #7C7269",
"Z  c #AF1C0E",
"A  c #853C06",
"S  c #913212",
"D  c #802F24",
"F  c #833C26",
"G  c #C31901",
"H  c #D52C1E",
"J  c #D83A26",
"K  c #C43929",
"L  c #EA3823",
"P  c #86411E",
"I  c #834425",
"U  c #834629",
"Y  c #85492C",
"T  c #8B4B2C",
"R  c #8A4527",
"E  c #994B23",
"W  c #944D2D",
"Q  c #964629",
"!  c #95512E",
"~  c #874D37",
"^  c #8D5338",
"/  c #955535",
"(  c #965939",
")  c #9B5D3C",
"_  c #985735",
"`  c #974230",
"'  c #A84C25",
"]  c #AC542B",
"[  c #A25C39",
"{  c #B55C35",
"}  c #B05425",
"|  c #A4623E",
" . c #C3490B",
".. c #CE4029",
"X. c #C55B34",
"o. c #FA523E",
"O. c #C1602F",
"+. c #D86C39",
"@. c #E67036",
"#. c #895E4C",
"$. c #9A5E41",
"%. c #A65A45",
"&. c #9F6144",
"*. c #8F6D54",
"=. c #826D5F",
"-. c #97765E",
";. c #8C6752",
":. c #A46542",
">. c #AA6C4A",
",. c #A76747",
"<. c #AD704D",
"1. c #A86D53",
"2. c #A9785C",
"3. c #B47959",
"4. c #BD744E",
"5. c #8C7564",
"6. c #857366",
"7. c #9F7D6F",
"8. c #8C796F",
"9. c #A77B67",
"0. c #CF7040",
"q. c #D37244",
"w. c #CF7550",
"e. c #D97756",
"r. c #C26B4B",
"t. c #E16C51",
"y. c #E7704F",
"u. c #DD7260",
"i. c #B0835D",
"p. c #98887B",
"a. c #B88468",
"s. c #A48678",
"d. c #AE937C",
"f. c #AF987D",
"g. c #B99678",
"h. c #AB8065",
"j. c #CF8857",
"k. c #D7895A",
"l. c #CF935A",
"z. c #EF824E",
"x. c #EB8E5F",
"c. c #F38651",
"v. c #F88955",
"b. c #FF905A",
"n. c #F3844F",
"m. c #C6936C",
"M. c #C9966F",
"N. c #D69769",
"B. c #C29270",
"V. c #C89B77",
"C. c #D79773",
"Z. c #D48A6A",
"A. c #FF9A66",
"S. c #F9996A",
"D. c #F19D72",
"F. c #EE9673",
"G. c #DEA87F",
"H. c #FFA36F",
"J. c #F7B878",
"K. c #E8AA79",
"L. c #9C8D83",
"P. c #AA9989",
"I. c #B89B87",
"U. c #AA9A92",
"Y. c #BC9D90",
"T. c #B29D94",
"R. c #BAA895",
"E. c #BBAEA3",
"W. c #C29D8B",
"Q. c #D49F85",
"!. c #C6A384",
"~. c #D5A885",
"^. c #D5B08F",
"/. c #C5A592",
"(. c #C9B09D",
"). c #D3B29B",
"_. c #DBB998",
"`. c #EAB384",
"'. c #EBBB8D",
"]. c #E3B38C",
"[. c #E4BA92",
"{. c #EBBC91",
"}. c #E1BD9A",
"|. c #E9AA89",
" X c #C6B4A8",
".X c #D6BDAA",
"XX c #C6B9B1",
"oX c #EDC094",
"OX c #ECC49A",
"+X c #F6C798",
"@X c #F4C08C",
"#X c #DDC1A1",
"$X c #CEC5BB",
"%X c #D5C6B9",
"&X c #E5C5A4",
"*X c #E9CEAB",
"=X c #E7C8A7",
"-X c #F1CAA3",
";X c #F0CEA9",
":X c #FBD4A9",
">X c #E5CCBC",
",X c #E9D2B2",
"<X c #F4D6B3",
"1X c #FBDCB5",
"2X c #F6DAB8",
"3X c #FDE2BC",
"4X c #DECFC5",
"5X c #E2CFC1",
"6X c #E5DCD5",
"7X c #FAE4C2",
"8X c #FDECC7",
"9X c #F0F1F1",
/* pixels */
"                    E..X%X        XX9X                                                                      ",
"                p.p.N *.9.Y.8.B 5.B d. X6X                                                                  ",
"              L.3 O O 1 l q = 3 = w t n *.s.                                                                ",
"    P.XX  P.6.5 : 2 4 : * * 7 7 & > 2 4 f b                                                                 ",
"p.6.n #.v r - 2 & $ 2 4 2 + . + $ # . % 2 7                                                                 ",
"E.p.d - > 2 6 & ; > ; 2 ; & + X + , x { q.,.                                                                ",
"  6.O > & + : > & $ & & # + + . & j +.n.b.0.m                                                               ",
"  B - : : $ ; & > & # & & $ # < e g l ] ,.b U.                                                              ",
"  P.=.d . & & $ + ; + $ $ X X , i :.3.0.k.C.$X                              5X>X).).V.B.m.V.V.V..X5X4X      ",
"      V B 3 . + # $ : # X ; , ; w Q X.r.v.|.                           XW.a.3.>.:.| :.[ &.:.| :.:.,.>.h.W. X",
"        P.6.C d $ * + 6 5 e w < e 9 c ' Z.                          Y.E A R I I I Y U x x h h a a a a s 0 L.",
"                M 8 g   v t p F q 6. X/.                          I.E I ~ ^ / ( ( / T I I h h R U P P Y 7.  ",
"                #.a     F Y ' X. . X                          >X).<.:.>.:.) ( / T T T x U U I u y ~ #.      ",
"                z k   -.%.R W { @.|.                4.3.<.) 3.3.2.) ) ^ Y Y Y U U U P Y A A W 9.U.          ",
"                c     ^ ;.F p W q.A.Q.      [ 1.^ +.1.s.7.        T.) _ _ / _ ! ! _ 1.[ 9.Y.XX              ",
"                Y h.-.S i b i a } v.x.#.P     s.O.F.6X                2.&.) ( ) $.9.                        ",
"                p e.~.1.D 9 N =.&.+.H.        H.c.                                                          ",
"                ..J L t.%.~       E z.A.D.S.H.S.                                                            ",
"            u.o.t._.|.J H Z u.      ] y.c.c.e.                                                              ",
"          K L J ^.<X3X_.,.` Q.        E +.w.                                                                ",
"            G r.*X<X<X:Xg.-.!.<X                                                                            ",
"            a./.*X3X1X3XOX2.*.&X                                                                            ",
"            Y.d.P.#X&X<XoXi.m.U ,X                                                                          ",
"            ~.a.I.*X^.*XJ.l.m.K.M.&X                                                                        ",
"            .XB.g.=X~.2XJ.J.V.f.OX+X2X                                                                      ",
"            (.j.a.a.C.{.@XJ.1XB.-.!.:X7X                                                                    ",
"            E.[.-Xg.j.N.j.+X7X;X].N.~.<X7X                                                                  ",
"          9X$X).3X&X^.+X_._.-XOX[.-XoX'.7X2X                                                                ",
"          %XU.=X7X8X<X3X1X=X[.`.`.'.{.oXOX8X&X                                                              ",
"          d.d.}._.,X2X=X}.OX`.`.:X:X{.{.2X                                                                  ",
"          !.'.{.}.{.{.OX-X+X'.'.<X(.                                                                        ",
"            '.`.OX`.@X+X                                                                                    "
};
