/* XPM */
static char *image1699628707[] = {
/* columns rows colors chars-per-pixel */
"32 32 181 2 ",
"   c None",
".  c #000001",
"X  c #0C0503",
"o  c #050808",
"O  c #110000",
"+  c #130A05",
"@  c #170E09",
"#  c #190903",
"$  c #1C120B",
"%  c #22140B",
"&  c #271408",
"*  c #391E0E",
"=  c #251A12",
"-  c #2D1F14",
";  c #33241A",
":  c #392417",
">  c #400D00",
",  c #421800",
"<  c #571B04",
"1  c #690300",
"2  c #740E00",
"3  c #42200E",
"4  c #432211",
"5  c #772A07",
"6  c #6B2B14",
"7  c #65321C",
"8  c #7B391C",
"9  c #743517",
"0  c #48392E",
"q  c #533628",
"w  c #653724",
"e  c #7E3F20",
"r  c #514136",
"t  c #67452E",
"y  c #674738",
"u  c #7A4B32",
"i  c #77513E",
"p  c #584D47",
"a  c #644E42",
"s  c #7D5B45",
"d  c #7C6858",
"f  c #853800",
"g  c #933F00",
"h  c #813E1F",
"j  c #813F23",
"k  c #CF0000",
"l  c #D9240B",
"z  c #E5351C",
"x  c #89401D",
"c  c #984111",
"v  c #854424",
"b  c #884625",
"n  c #8A4B2B",
"m  c #964F29",
"M  c #974B21",
"N  c #945333",
"B  c #995935",
"V  c #9D5C3A",
"C  c #985634",
"Z  c #A34A24",
"A  c #A65528",
"S  c #B85E32",
"D  c #BE602F",
"F  c #A5623E",
"G  c #AE603D",
"H  c #BD6230",
"J  c #EA563E",
"K  c #D4633D",
"L  c #8F5740",
"P  c #995F48",
"I  c #8D634F",
"U  c #9B6349",
"Y  c #806D5D",
"T  c #8C715B",
"R  c #A46442",
"E  c #A96443",
"W  c #A56C4C",
"Q  c #AA6B4B",
"!  c #A96647",
"~  c #B76545",
"^  c #AC7348",
"/  c #A16B50",
"(  c #AC7A5F",
")  c #A97257",
"_  c #BC7653",
"`  c #B77D5C",
"'  c #896F68",
"]  c #987D6D",
"[  c #887A71",
"{  c #DD5F47",
"}  c #FF5B44",
"|  c #C06E48",
" . c #D46C40",
".. c #CC7544",
"X. c #DA7446",
"o. c #CE6351",
"O. c #C67C58",
"+. c #DB7A52",
"@. c #E67546",
"#. c #928275",
"$. c #9B8679",
"%. c #A78268",
"&. c #B48466",
"*. c #A5887A",
"=. c #B48A77",
"-. c #B58C7D",
";. c #AF947D",
":. c #B69272",
">. c #CC8756",
",. c #FA874E",
"<. c #EF8753",
"1. c #F68C56",
"2. c #FF9057",
"3. c #F7915D",
"4. c #C1866F",
"5. c #DE8D6D",
"6. c #CD9363",
"7. c #D3966A",
"8. c #C79772",
"9. c #CC9C73",
"0. c #CB9474",
"q. c #DA9F79",
"w. c #E58B6F",
"e. c #FF9B67",
"r. c #F49E73",
"t. c #DEA06E",
"y. c #E8A37C",
"u. c #FFA776",
"i. c #EBB37B",
"p. c #9D8D80",
"a. c #AA9385",
"s. c #A29289",
"d. c #BCA18E",
"f. c #B3A599",
"g. c #CD9D80",
"h. c #C9A98A",
"j. c #D7AA89",
"k. c #DAB089",
"l. c #C5A99D",
"z. c #D4AD93",
"x. c #CDB599",
"c. c #D3B092",
"v. c #DBB692",
"b. c #D9B89C",
"n. c #E8A984",
"m. c #EBB283",
"M. c #ECBC8E",
"N. c #EAB688",
"B. c #F0BD8C",
"V. c #E4BB93",
"C. c #E6BD95",
"Z. c #C6AEA0",
"A. c #C4B4AB",
"S. c #CCB1A0",
"D. c #D3BBA6",
"F. c #FAC288",
"G. c #EDC196",
"H. c #EBC29B",
"J. c #E5C19D",
"K. c #F3C79C",
"L. c #FACA99",
"P. c #D7C6B8",
"I. c #E9C6A3",
"U. c #EBCFAE",
"Y. c #E4C7A8",
"T. c #F5CDA3",
"R. c #FCD3AB",
"E. c #EEC5B5",
"W. c #EDD3B1",
"Q. c #F3D5B0",
"!. c #FDDCB2",
"~. c #FADFBA",
"^. c #F5DBB7",
"/. c #FDE3BE",
"(. c #D9D2CF",
"). c #DFDDDA",
"_. c #E9D0C0",
"`. c #F4D9C6",
"'. c #EEDCD0",
"]. c #FEEBC4",
"[. c #FFE5C0",
/* pixels */
"                                          (.    P.P.            ",
"                                        P.T d $.=.s $.          ",
"                                      %.u , % > 7 % O [         ",
"                                      t ; $ - ; o - % 0 $.  f.  ",
"                                      ; o X + . = - @ % * i s #.",
"                                      | S 4 . + $ = $ % ; X r f.",
"                                    p <.,.M . # + @ + % $ . r   ",
"                                    s./ A q 4 + @ + @ $ $ . 0   ",
"    '.z.9.8.8.z.`.                  P.y...Q < X + + + @ @ . ]   ",
"Z.&.E R F R F F Q ` x.                r. .M % = X @ @ . & d     ",
"' 1 8 9 8 8 v v j v g a.                ~ < , 4 : = . 0 #.a.    ",
"  U f v h j b C B N j ~                 S.a.1 8 t   y           ",
"    L 5 h v v n N B ! V j._.              Z.K Z v   u           ",
"      a.m f b v v b n B W ` R O._         n.@.h !   7           ",
"        A.=.F V m B M `       *._ G !     u.K 6 U               ",
"              ) V B )           E.+.    _ 3.g w 6 P (           ",
"                                  3.      1.I a 2 0.O.          ",
"                                    u.r.3.K     ~ J z           ",
"                                    +.2.@.    o.k w.k.}         ",
"                                      X.A     4.! W.W.{ l       ",
"                                              c.:.!.^.w.        ",
"                                              &.v././.b.        ",
"                                            h.^ v.Q.x.d.        ",
"                                          b.m.6.i.J.b.g.        ",
"                                          !.c.9.F.I.k.j.        ",
"                                        /.v.%.T.F.m.&.q.        ",
"                                        /.7.H.~.t.>.j.Q.        ",
"                                      /.K.H.H.I.b.V.U.Y.).      ",
"                                    W.].M.M.m.C.^.~.].Y.A.      ",
"                                        R.T.L.N.I.Q.U.v.;.      ",
"                                          D.R.B.T.C.C.G.k.      ",
"                                                  L.M.L.        "
};
