/* XPM */
static char *_f24d6ddd23241afc1bec797f95e03f8fFpQSyHTureSN2Ai[] = {
/* columns rows colors chars-per-pixel */
"42 32 225 2 ",
"   c None",
".  c #153C22",
"X  c #005E0D",
"o  c #00421A",
"O  c #006907",
"+  c #266C00",
"@  c #0F4D25",
"#  c #03522B",
"$  c #08562A",
"%  c #115C2B",
"&  c #1D5A2A",
"*  c #0C5832",
"=  c #00553E",
"-  c #135533",
";  c #125C33",
":  c #1A5839",
">  c #1B472A",
",  c #285A33",
"<  c #235C3B",
"1  c #315D2B",
"2  c #0D6535",
"3  c #0E6C3B",
"4  c #076636",
"5  c #136633",
"6  c #136A35",
"7  c #1A643C",
"8  c #146B3B",
"9  c #1C6C3B",
"0  c #1A6635",
"q  c #0B723B",
"w  c #06763B",
"e  c #15723B",
"r  c #1A7336",
"t  c #136A2C",
"y  c #27622B",
"u  c #39672C",
"i  c #3A772F",
"p  c #236336",
"a  c #3C6835",
"s  c #2C753D",
"d  c #287737",
"f  c #3B7533",
"g  c #2B7B2B",
"h  c #445C3F",
"j  c #467C33",
"k  c #005644",
"l  c #245F46",
"z  c #295C49",
"x  c #006640",
"c  c #166D41",
"v  c #1A6B42",
"b  c #1B6844",
"n  c #027545",
"m  c #147343",
"M  c #177944",
"N  c #1C7C44",
"B  c #1A7B4A",
"V  c #1B7247",
"C  c #1F6F57",
"Z  c #187A52",
"A  c #236344",
"S  c #216A45",
"D  c #25644B",
"F  c #236B4B",
"G  c #296B4C",
"H  c #2A6846",
"J  c #366D49",
"K  c #24754D",
"L  c #237E49",
"P  c #297647",
"I  c #32774C",
"U  c #387E48",
"Y  c #2B6F55",
"T  c #2B6A53",
"R  c #336C54",
"E  c #3E6D5E",
"W  c #227653",
"Q  c #2B7455",
"!  c #2D7B54",
"~  c #2F755B",
"^  c #2D7C5A",
"/  c #277D59",
"(  c #33735C",
")  c #3A745D",
"_  c #337E5C",
"`  c #387756",
"'  c #3C7561",
"]  c #337B60",
"[  c #3A7B63",
"{  c #3E7F69",
"}  c #447A4B",
"|  c #517F40",
" . c #45785C",
".. c #4B6A46",
"X. c #62734B",
"o. c #78566B",
"O. c #437C69",
"+. c #467C66",
"@. c #527F71",
"#. c #7F7070",
"$. c #75706E",
"%. c #897B4F",
"&. c #AB685B",
"*. c #86586C",
"=. c #976C68",
"-. c #907C61",
";. c #857D79",
":. c #A4746B",
">. c #2E8439",
",. c #3A8839",
"<. c #3F9535",
"1. c #50882F",
"2. c #4A8737",
"3. c #4E9537",
"4. c #599437",
"5. c #59853F",
"6. c #60923F",
"7. c #4DA135",
"8. c #77A53A",
"9. c #64AE2A",
"0. c #1E8344",
"q. c #1E804C",
"w. c #068749",
"e. c #2B834B",
"r. c #288946",
"t. c #388745",
"y. c #22924F",
"u. c #288657",
"i. c #398454",
"p. c #3A8A54",
"a. c #3A836A",
"s. c #4B8A49",
"d. c #498846",
"f. c #548E4B",
"g. c #5A8849",
"h. c #589548",
"j. c #488A56",
"k. c #578658",
"l. c #599554",
"z. c #4A9C59",
"x. c #6B9A4A",
"c. c #739C48",
"v. c #619657",
"b. c #72955F",
"n. c #638C4D",
"m. c #53A34E",
"M. c #68A44B",
"N. c #74A747",
"B. c #74A458",
"V. c #78A654",
"C. c #73B05C",
"Z. c #428463",
"A. c #488569",
"S. c #4B8A75",
"D. c #598573",
"F. c #57936F",
"G. c #669869",
"H. c #719170",
"J. c #7AA569",
"K. c #A79031",
"L. c #899659",
"P. c #8AB745",
"I. c #8AAB5D",
"U. c #85A657",
"Y. c #88B55A",
"T. c #A2BA5B",
"R. c #AE9E7A",
"E. c #B08678",
"W. c #8BA063",
"Q. c #8EBF65",
"!. c #85B361",
"~. c #95BA6B",
"^. c #80A470",
"/. c #98B978",
"(. c #AEB273",
"). c #CC8265",
"_. c #8EC64F",
"`. c #8DC45E",
"'. c #A7C95C",
"]. c #B3D95B",
"[. c #B9ED55",
"{. c #89C468",
"}. c #9AC466",
"|. c #85C07D",
" X c #9DC072",
".X c #A4CE6E",
"XX c #A6C866",
"oX c #AAD665",
"OX c #BDDF6F",
"+X c #AECE78",
"@X c #BEC272",
"#X c #ABD272",
"$X c #B4D877",
"%X c #BAE378",
"&X c #BBE56F",
"*X c #D0D17F",
"=X c #C2D86D",
"-X c #C2E869",
";X c #C6EB75",
":X c #D0EB70",
">X c #D4F579",
",X c #8A6A83",
"<X c #618A81",
"1X c #CB849D",
"2X c #DFB79D",
"3X c #C5BD95",
"4X c #E2B086",
"5X c #9EC282",
"6X c #A8C180",
"7X c #B6D986",
"8X c #BEDC95",
"9X c #B5E681",
"0X c #C9D386",
"qX c #C7CD90",
"wX c #CBED8B",
"eX c #C5E785",
"rX c #D5E68A",
"tX c #DEF687",
"yX c #D7EA92",
"uX c #D3F195",
"iX c #EBD4B1",
"pX c #CCEDA1",
"aX c #F1F2B0",
"sX c #FFD2C0",
"dX c #F2C8C3",
/* pixels */
"                                  ;XoX'.                                            ",
"                              aXaXqX(.).&.^.                                        ",
"                          sX2XqX3X;.X.:.=.H.E.1X                                    ",
"                        dXiXE.-.%.=. .#.} O #.,X*.                                  ",
"                        4X-XXXR.y f y u a y p ..o.                                  ",
"                        >X[.oXN.| 2.d 6 s 6 4 J                                     ",
"                        -XXXY.c.8.1.s ,.t.e 9 0                                     ",
"                      :X-XU.c.I.P.9.<.4.7.,.<.>.                                    ",
"                      %XB.x.x.n.4.3.,.i r d >.L                                     ",
"                    -X}.f.d.t 2.4.2.,.g r r : r.                                    ",
"                    oXY.Y.,.X g.j j 2.d.t.7 , e.                                    ",
"                  >X$X!.M.g # g.u u u 1 1 : < L                                     ",
"                  }.Q.{.s.o , ..f i y & @ . ; q.u.                                  ",
"                  oXC.I.(.U.L.c.3.j d q 8 > & S u.                                  ",
"                XXoX#XrX@XL.L.x.N.V.h.t.0.e.U R                                     ",
"                OX_.0X*XK.$.H.n.f.f.s.U N r.e.Z.`                                   ",
"                %XN.0X0XW.h k.h.f.s.4 4 6 q N } +.                                  ",
"                `.a yXrXB.k g.V.f.G.s 9 9 8 q L Z.                                  ",
"              &X}.V.yX;XN.= B.Q.l.v.j.3 9 8 V B i.i.                                ",
"              #XQ.].tX#XM.# g.~.v.j.I 3 7 7 m M ! e.                                ",
"              -X`.T.=XP.s 4 # n.l.j.! K b - 8 M c K                                 ",
"              eX!.'.].N.n 5 # p d.p.^ Q b ; 8 M 8 v                                 ",
"            #Xs.~.-X.X|.G.b % A U p.^ _ G 7 v e 5 c                                 ",
"            pX5XO C.{.F.F.F # l I i.[ [ Q A b 8 % 5 6                               ",
"            8XwX+ x z.u.C v * : G _ [ [ _ G 7 8 6 ; ; 6                             ",
"          ;X>X8.w P Z u.Q A * : A B / [ ( ( F 2 6 * - 6 v 9 L         e.r.N e       ",
"          $X'.2.d q 0.u.Q D 7 : D V W ~ Q ( Y c 8 @ - ; A H K ! ) A.A.i.e.B         ",
"          7X/.~.d.5.h.a.( Y T z l F W ~ ^ Y T m c : * 2 < < A R  .Z.Z.L u.y.w.n     ",
"      7X%X7X8XwX~.k.D.<XS.[ D l F Y / ( ] Y T v 2 ; - - : A H H R R I d e.r.r.m.M.h.",
"      9X X6XuXeXI. .@.D.S.O.( z G ( [ a.] ~ R K 3 S D A c A H 9 I       0 y f 6.    ",
"    $X.Xb.+XtX=XJ.` ) E ' ) ] E ) ( O.A.{ ( Y V m V F F W F S 7 P                   ",
"  $X~.U. XwXyX7XJ.Z.Z.+.R l _ O.O.[ [ A.S.[ ] ^ Z W Q ' ' ( Q H K                   "
};
