/* XPM */
static char *_9843fb876704fa3ba61c814aee27c8egb1k951FBPhItiqL[] = {
/* columns rows colors chars-per-pixel */
"32 32 212 2 ",
"   c #010001",
".  c #0B0201",
"X  c #010900",
"o  c #0D0904",
"O  c #01010A",
"+  c #0B0B0A",
"@  c #120000",
"#  c #1D0100",
"$  c #140D04",
"%  c #1D0C04",
"&  c #170F09",
"*  c #0E1108",
"=  c #171003",
"-  c #191303",
";  c #12150C",
":  c #1D150C",
">  c #000011",
",  c #181B12",
"<  c #220000",
"1  c #250700",
"2  c #2B0E00",
"3  c #340A00",
"4  c #231C0B",
"5  c #291B08",
"6  c #301F05",
"7  c #231A11",
"8  c #292205",
"9  c #23200F",
"0  c #2C2709",
"q  c #34230C",
"w  c #352A0E",
"e  c #272111",
"r  c #2C2518",
"t  c #372D12",
"y  c #3A2B11",
"u  c #3A3015",
"i  c #460300",
"p  c #510D00",
"a  c #471500",
"s  c #461802",
"d  c #541B00",
"f  c #461B12",
"g  c #6C1C00",
"h  c #631C08",
"j  c #462804",
"k  c #5D2400",
"l  c #563105",
"z  c #402F1B",
"x  c #502715",
"c  c #483515",
"v  c #47361B",
"b  c #47391F",
"n  c #503D1D",
"m  c #6E2C01",
"M  c #67200C",
"N  c #732402",
"B  c #782C0A",
"V  c #753500",
"C  c #773802",
"Z  c #7A3800",
"A  c #7B3308",
"S  c #6A2615",
"D  c #702915",
"F  c #633C13",
"G  c #5A2E21",
"H  c #4F3E2E",
"J  c #5D3828",
"K  c #453B32",
"L  c #732F22",
"P  c #613826",
"I  c #7C4200",
"U  c #7F4C1F",
"Y  c #7C531F",
"T  c #554021",
"R  c #594425",
"E  c #584534",
"W  c #644D2E",
"Q  c #634B31",
"!  c #685134",
"~  c #725533",
"^  c #7A5545",
"/  c #813A06",
"(  c #873A18",
")  c #834403",
"_  c #894508",
"`  c #964900",
"'  c #9B4A00",
"]  c #99490A",
"[  c #885900",
"{  c #9C540A",
"}  c #A65400",
"|  c #96670B",
" . c #B56200",
".. c #AF6117",
"X. c #AD6119",
"o. c #AA6D1C",
"O. c #B16112",
"+. c #BC6A14",
"@. c #814E21",
"#. c #9D4F2B",
"$. c #885A26",
"%. c #915731",
"&. c #A85521",
"*. c #A15C33",
"=. c #95672B",
"-. c #89653A",
";. c #AB6B2E",
":. c #B36121",
">. c #BF6B2B",
",. c #B87325",
"<. c #A3713E",
"1. c #BB7B3E",
"2. c #C7740C",
"3. c #CF6A10",
"4. c #D46F15",
"5. c #CB7218",
"6. c #C3752A",
"7. c #985542",
"8. c #956E45",
"9. c #9B764A",
"0. c #B06B42",
"q. c #A47240",
"w. c #AE7C47",
"e. c #A16B51",
"r. c #A87050",
"t. c #B17751",
"y. c #CA7743",
"u. c #D7871A",
"i. c #E88C07",
"p. c #F19717",
"a. c #DAB212",
"s. c #E1BC0C",
"d. c #FFA31E",
"f. c #CC873C",
"g. c #E6872D",
"h. c #F18C32",
"j. c #FCA321",
"k. c #FFA628",
"l. c #E9AF34",
"z. c #F7AA38",
"x. c #ECB439",
"c. c #F1B93E",
"v. c #F6D121",
"b. c #FCD737",
"n. c #FCEF2E",
"m. c #FFE838",
"M. c #FFFC3B",
"N. c #BF864F",
"B. c #BA875A",
"V. c #B78F5B",
"C. c #B98D5A",
"Z. c #BF915D",
"A. c #D79F48",
"S. c #C18E59",
"D. c #CB975E",
"F. c #E29449",
"G. c #CDAA4C",
"H. c #D8AB4D",
"J. c #CDAA50",
"K. c #DCB953",
"L. c #E5A25A",
"P. c #E7AD59",
"I. c #C79961",
"U. c #D79E65",
"Y. c #ED9A66",
"T. c #D6A36E",
"R. c #DFB36A",
"E. c #E7A767",
"W. c #F5A161",
"Q. c #E6BA71",
"!. c #FFBD72",
"~. c #FCC247",
"^. c #E1CA5A",
"/. c #FFC856",
"(. c #FAD559",
"). c #E8EE4E",
"_. c #EDF353",
"`. c #FBF858",
"'. c #EEC961",
"]. c #E8CB65",
"[. c #F8C46B",
"{. c #ECD56B",
"}. c #F2D06E",
"|. c #F1DA6A",
" X c #E5C47F",
".X c #F2CF73",
"XX c #FFC972",
"oX c #FCD875",
"OX c #F4EF60",
"+X c #FAF963",
"@X c #FEE877",
"#X c #F7F777",
"$X c #FFFF75",
"%X c #EAB782",
"&X c #E8C782",
"*X c #E6CE81",
"=X c #E9CC83",
"-X c #FCC782",
";X c #EAD784",
":X c #FFD887",
">X c #F8D88C",
",X c #FBDD95",
"<X c #FFEF85",
"1X c #FFF184",
"2X c #FEFF82",
"3X c #FEED95",
"4X c #FFE59D",
"5X c #FFE99C",
"6X c #FFEFA0",
"7X c #FFF8A5",
"8X c #FFF9B3",
"9X c #FFFDB9",
/* pixels */
"                                                                ",
"                                                                ",
"                                                                ",
"+ + + + + +                                                     ",
"= = = & & & +                                                   ",
": : : : : : + + +                                               ",
"q q 8 8 8 8 : & o .     > > O O O O O O O O     O O             ",
"z z u t w 0 7 : = $ o . > > O O O O O O O O     O O             ",
"R T n v c y r e , ; + + .   o o o o . . . . . . + +             ",
"! W R T n c r e , * +                                           ",
":.>.,.o.| [ I I C m k d a a a a a a a a a a a a 1 # . .         ",
"W.-X:X:XoX[.P.P.E.L.D.N.w.q.<.<.<.<.q.q.q.q.r.e.^ J & .         ",
"(.@X2X2X2X#X)._.OXOX|.^.K.G.G.G.G.G.G.G.J.J.H.A.y.&.S i . @     ",
"(.#X2X2X2X#X`.+X$X$X1X@XoX}.}.}..X.X.X.X.X.XXX[.Y.y.7.S % .     ",
"{.1X9X9X7X3XoX@X8X8X7X6X5X5X5X5X5X5X5X5X5X5X4X,X%XU.t.%.x <     ",
"{.<X8X8X3X;X].].,X,X>X;X=X=X=X=X*X*X*X*X*X*X&X XT.S.r.%.P 3     ",
"'.oX:X-X!.L.F.F.E.U.I.D.I.Z.C.C.C.C.V.V.V.V.B.B.0.*.#.( L p     ",
"K.'.Q.R.L.f.6.6.1.;.=.=.$.$.Y Y Y Y Y Y Y Y @.U A m N N S i     ",
"l.~.c.x.z.u.4.3.5. .{ ` ) Z V V V V V V V V A A g g h M f <     ",
"~.(.(.(./.z.h.g.g.5.X.{ _ / Z Z Z Z C C C C / / N N D h 3 #     ",
"b.`.M.M.m.v.k.j.d.i.2. .} ' ' ' ` ` ` ` ` ` ] ] A B G 3 X       ",
"a.b.n.n.m.s.p.p.j.p.u.2.+.+.O.O.O.O.....X.X.:.&.( ( s < X X     ",
"-.8.9.9.-.-.~ ~ ! Q E E E E H H H H H H H H K K r .             ",
"F F l j j s 2 2 1 # @ @ . . . . . . . . . . . .                 ",
"b b v z y w 5 5 4 - & $ o o o o o o o o o o + + +               ",
"y y w q 6 6 4 - $ $ . .                                         ",
"9 9 4 4 4 4 & $ o .                                             ",
"- - - - - = o o .                                               ",
"o o o o o o .                                                   ",
". . . . .                   O O O O                             ",
"                                                                ",
"                                                                "
};
