/* XPM */
static char *exit1699617003[] = {
/* columns rows colors chars-per-pixel */
"32 32 220 2 ",
"   c #030302",
".  c #0B0301",
"X  c #030A02",
"o  c #0B0B03",
"O  c #03030B",
"+  c #0B030A",
"@  c #050B0B",
"#  c #0B0D0C",
"$  c #140600",
"%  c #140B02",
"&  c #1B0D01",
"*  c #12060A",
"=  c #140C0B",
"-  c #1A0E0B",
";  c #0B110B",
":  c #0A1508",
">  c #141203",
",  c #1C1301",
"<  c #19100B",
"1  c #15100D",
"2  c #060112",
"3  c #0B0414",
"4  c #0B0D10",
"5  c #04001A",
"6  c #120313",
"7  c #1A0C15",
"8  c #120A19",
"9  c #0F1412",
"0  c #051014",
"q  c #121314",
"w  c #1E1415",
"e  c #220D01",
"r  c #221300",
"t  c #291700",
"y  c #251A01",
"u  c #2A1C01",
"i  c #25160B",
"p  c #2D1E0B",
"a  c #211C08",
"s  c #311E09",
"d  c #281C16",
"f  c #2D2302",
"g  c #272006",
"h  c #332401",
"j  c #3D2602",
"k  c #342901",
"l  c #3B2B01",
"z  c #39280C",
"x  c #3E3203",
"c  c #3D3409",
"v  c #2E211B",
"b  c #362514",
"n  c #3A2A12",
"m  c #3E3011",
"M  c #0E0025",
"N  c #422E01",
"B  c #452E0E",
"V  c #423302",
"C  c #4B3403",
"Z  c #4A3904",
"A  c #4C3D0B",
"S  c #423705",
"D  c #543E00",
"F  c #553E08",
"G  c #463913",
"H  c #4A3B1C",
"J  c #463016",
"K  c #503E16",
"L  c #4D3D23",
"P  c #573E20",
"I  c #4E430B",
"U  c #56420B",
"Y  c #5C4B0C",
"T  c #564508",
"R  c #4D4315",
"E  c #544314",
"W  c #53441C",
"Q  c #59421B",
"!  c #5B4B16",
"~  c #5F5015",
"^  c #664B05",
"/  c #62510C",
"(  c #7A5F0E",
")  c #644D19",
"_  c #6A5B14",
"`  c #66591D",
"'  c #685518",
"]  c #725A1E",
"[  c #6F601F",
"{  c #786114",
"}  c #7A651B",
"|  c #7F6818",
" . c #5F5027",
".. c #574726",
"X. c #644E29",
"o. c #6A5725",
"O. c #735B26",
"+. c #6F6124",
"@. c #7A6721",
"#. c #72642A",
"$. c #7C6A28",
"%. c #7D6B3B",
"&. c #7D6B43",
"*. c #8D7317",
"=. c #8F7929",
"-. c #87752A",
";. c #847535",
":. c #897333",
">. c #8B7C34",
",. c #8A7A3A",
"<. c #82733A",
"1. c #927D33",
"2. c #967A3B",
"3. c #876A32",
"4. c #897A43",
"5. c #8D7954",
"6. c #827161",
"7. c #8F802F",
"8. c #968433",
"9. c #92823C",
"0. c #9A863A",
"q. c #9F903B",
"w. c #A18824",
"e. c #A9963B",
"r. c #B59E38",
"t. c #998644",
"y. c #978947",
"u. c #968747",
"i. c #9E8C50",
"p. c #9D9157",
"a. c #A78F45",
"s. c #A8964B",
"d. c #B49D41",
"f. c #A99A59",
"g. c #AE9558",
"h. c #BBA74D",
"j. c #B6A55C",
"k. c #BEAC5A",
"l. c #B9A753",
"z. c #98846B",
"x. c #A99666",
"c. c #AFA160",
"v. c #B6AB6E",
"b. c #BAAA64",
"n. c #B9B075",
"m. c #C0A440",
"M. c #C9B245",
"N. c #D1B844",
"B. c #C3AC55",
"V. c #C6AA5A",
"C. c #C9B557",
"Z. c #D4BD53",
"A. c #D4BD5E",
"S. c #C9B665",
"D. c #D3BC64",
"F. c #CBB973",
"G. c #D2BC76",
"H. c #D8C44C",
"J. c #DAC45F",
"K. c #EAD55C",
"L. c #CFC068",
"P. c #D9C365",
"I. c #D0C169",
"U. c #DAC16A",
"Y. c #DCC96D",
"T. c #DFD069",
"R. c #D7C778",
"E. c #E3CE64",
"W. c #E2CD6C",
"Q. c #E0C56A",
"!. c #ECD669",
"~. c #E6D46A",
"^. c #E7CE78",
"/. c #E6D371",
"(. c #E5D27D",
"). c #EFDC7D",
"_. c #EBD775",
"`. c #F3DD76",
"'. c #F6DC6B",
"]. c #FBE66C",
"[. c #F5E27C",
"{. c #FAE67B",
"}. c #CEBB93",
"|. c #C9B582",
" X c #D5C68A",
".X c #D5CC91",
"XX c #E0C986",
"oX c #E3D382",
"OX c #EDDA8C",
"+X c #E7D587",
"@X c #F6DE83",
"#X c #E1CB9C",
"$X c #E4D095",
"%X c #ECDC93",
"&X c #EDDB9D",
"*X c #F1DD94",
"=X c #F4E483",
"-X c #FAE986",
";X c #F4E38B",
":X c #FFEC8B",
">X c #F9E485",
",X c #FFF68E",
"<X c #EFE59D",
"1X c #F5E594",
"2X c #FEEB93",
"3X c #F4E498",
"4X c #FDEB9A",
"5X c #F8E79A",
"6X c #FFF295",
"7X c #FFF29B",
"8X c #FFFA9C",
"9X c #FEEBA2",
"0X c #FFF4A3",
"qX c #FFFCA4",
"wX c #FFF4A9",
"eX c #FFFCAD",
"rX c #FDE6B0",
"tX c #FFF7B4",
"yX c #FFFEB2",
"uX c #FFFDBC",
/* pixels */
"X X   O @ O O + * . . $ e & e t r & e $ + 3 2 3 4 @ # X   # ; # ",
"X X X O O O O . . a p r e h z h l y r , - + + 8 +   o # : X X @ ",
"  X O       . $ y , y k V A ! ~ T Z N z f $ . > # @   ; 9 @   9 ",
"  O @     . , , f k T ,.f.k.b.F.0.8.} +.` R f X & > o   # O   9 ",
"O 2 @ o . % f x I =.S.oX;X7X8X7XOX_.B.e.h.j.%.g > & . O @ 4 O # ",
"2 O   o & y x _ l.L.=X-X-X[.-X-X:X8X`.E.E.T.I.9.c , . 3 @ 4 0   ",
"3 O   , g k [ q.=X/.T.[.[.T.P.W.Y.`.'.].K.H.[.OXu.b . 7 @ @ :   ",
"3   o f x T 7.L.).,X6X=XY.B.q.*.V.V.m.'.].H.].qX$X..$ d +   : X ",
"3 . , f I -.l.=XqX6XD.8.-.3./ T 3.2.*.w.N.K.M.2XtX}.6.v   o   X ",
". . , u ~ k.;XqX2Xk._ C U E E E P B ^ ( *.Z.`.Q.uX#Xz.& d . > X ",
". > f E s.;XqXqXOX4.Z j h t y b s e N D ^ e.@XQ.9XrX5.$ , > X X ",
". , f u.$X7X7X5XV.o.j z r . % < e i t N _ ( B._.+XuXx.u u ,   X ",
"$ , f p.<X7XqX%Xi.P t e * = :   + w $ u ) D =.G.S.eX Xl L   %   ",
". y l f.3X0XeXF.o.H p =   O @ O 2 O . y S U 1.l.B.4XOX! G   . O ",
". f G v.3X7XwXt.t s i .     O @ 0   o a y ~ 8.V.A.:X4X,.G & * 8 ",
"$ p c v.3X1XwX;.K P d $ # @     @   X , & A @.D.W._.qX$.W $ 7 2 ",
"o a R .XR.0X9X;.Q u $ -     :     @ X o z k } C.Z.!.=Xs.%.. 7 3 ",
"> a c  X<X0X9X$.V s $ $     X X @   : > r j 8.d.M.!.:XS.! . 7 6 ",
"o g f n.wX9XeXy.C B $ $ = o       # % & k V =.C.r._.qXG.h $ * 6 ",
"  , g 4.%X5XuXG.O.X.b e - % %     1 . , Z C | D.d.>XyXf.& , . . ",
". & f I b.1XyX3Xp.O.J J e $ - % d - t K Y ( d.V.^.yX&XX.$ ,     ",
". % f f y.3XeX0XXXO.N P z $ e & b n s ) 1.V.U.D.eXtXx.u . %   o ",
". o y , #.R.4XeX9Xg.o.) Q N j u B Q N } l.P.A.@XtX|.H % % X   X ",
"  < > , I t.oX4XwXwXG.3.) F U U 4.O.( D.P.Z.~.eX$X&.. , #     X ",
"+ . . , k ) s.1X7XeXeX+Xa.} | -.a.k.P.T.`.,X8X+X#.m & .   O O   ",
"O O   $ y x #.j.S.oX7XqX2XoXR.R./.).{.{.{._.k.-.W u . + O O @   ",
"O O   . % r V o.9.s.R.4XeXeXqX:X:X:X,X).C.8.Y y f $   . O O O O ",
"O O   . $ % y x T ' ;.j.oX9X0X0X2X;X).I.y.+.K h % .   + O O O O ",
"O       . . % y u h Z ` ;.i.c.b.R.j.y.%.X.m r . .           O   ",
"        O     $ & r u f k k l l f r y f i - = * + . o .     O O ",
"  X     O O O + . . & , , r & r e t f d 6 2 2 2 +   X o         ",
"  X @ O 2 2 O 6 . . . . % & , & & $ $ * 3 M M 5 2   .       . O "
};
