/* XPM */
static char *fire1699617748[] = {
/* columns rows colors chars-per-pixel */
"32 32 200 2 ",
"   c #000000",
".  c #0C0000",
"X  c #010C00",
"o  c #0C0B00",
"O  c #130000",
"+  c #1B0201",
"@  c #100E00",
"#  c #1C0C00",
"$  c #011400",
"%  c #001900",
"&  c #151400",
"*  c #1C1400",
"=  c #240301",
"-  c #2C0102",
";  c #220D01",
":  c #280E00",
">  c #340103",
",  c #3B0103",
"<  c #3D0C02",
"1  c #231300",
"2  c #221901",
"3  c #002401",
"4  c #440103",
"5  c #4B0202",
"6  c #4C0803",
"7  c #520002",
"8  c #5C0104",
"9  c #491304",
"0  c #541A02",
"q  c #610204",
"w  c #6D0203",
"e  c #690904",
"r  c #720002",
"t  c #7C0004",
"y  c #740B03",
"u  c #6A1403",
"i  c #6F1802",
"p  c #731204",
"a  c #711903",
"s  c #791C03",
"d  c #762503",
"f  c #7A2A04",
"g  c #693803",
"h  c #860203",
"j  c #890003",
"k  c #8B0A02",
"l  c #930003",
"z  c #9F0405",
"x  c #970902",
"c  c #851403",
"v  c #981103",
"b  c #BC0002",
"n  c #AB1B05",
"m  c #BA1504",
"M  c #822003",
"N  c #8A2303",
"B  c #8E2A03",
"V  c #932303",
"C  c #982105",
"Z  c #8D3B05",
"A  c #9D3404",
"S  c #933904",
"D  c #9C3B05",
"F  c #AB2405",
"G  c #AC2F05",
"H  c #B42C05",
"J  c #B92F05",
"K  c #A63305",
"L  c #AE3104",
"P  c #A43C04",
"I  c #AB3B05",
"U  c #AA3E08",
"Y  c #BF3A07",
"T  c #CD0004",
"R  c #C50008",
"E  c #D60D06",
"W  c #C51B05",
"Q  c #C52306",
"!  c #C13804",
"~  c #CB3A06",
"^  c #D63A05",
"/  c #E23605",
"(  c #EF3205",
")  c #F3340A",
"_  c #9D4905",
"`  c #A24204",
"'  c #AA4405",
"]  c #AC4E04",
"[  c #AA4908",
"{  c #B34405",
"}  c #BE4F06",
"|  c #A7580A",
" . c #B55205",
".. c #BF5406",
"X. c #C04007",
"o. c #CC4507",
"O. c #C74907",
"+. c #CD4C07",
"@. c #C64C08",
"#. c #CC4F08",
"$. c #D44205",
"%. c #DC4506",
"&. c #D34B06",
"*. c #DC4E06",
"=. c #DE4D08",
"-. c #C65307",
";. c #CE5006",
":. c #C45D06",
">. c #D15607",
",. c #DB5507",
"<. c #D55A06",
"1. c #D55D08",
"2. c #E24B07",
"3. c #FA4807",
"4. c #F94408",
"5. c #EE5E05",
"6. c #EC5908",
"7. c #FA5107",
"8. c #F75A07",
"9. c #CF6407",
"0. c #CF6907",
"q. c #CB690C",
"w. c #D06305",
"e. c #DC6406",
"r. c #DF6F06",
"t. c #D46109",
"y. c #DE6109",
"u. c #DE690A",
"i. c #DD7707",
"p. c #DC7908",
"a. c #E36606",
"s. c #E86207",
"d. c #E36A07",
"f. c #ED6D07",
"g. c #E36308",
"h. c #EB6208",
"j. c #EE6A08",
"k. c #F56507",
"l. c #F06D05",
"z. c #F96807",
"x. c #F56308",
"c. c #F96509",
"v. c #FB6C08",
"b. c #E57306",
"n. c #EC7707",
"m. c #E47A07",
"M. c #EC7A07",
"N. c #E07109",
"B. c #ED740A",
"V. c #ED7908",
"C. c #F37506",
"Z. c #FA7607",
"A. c #F57907",
"S. c #FC7C07",
"D. c #FB7209",
"F. c #F57D09",
"G. c #FA7D08",
"H. c #D8880B",
"J. c #ED8A06",
"K. c #E68009",
"L. c #EE8E0E",
"P. c #F28407",
"I. c #FC8407",
"U. c #FA8D07",
"Y. c #F48408",
"T. c #F98208",
"R. c #F38C0A",
"E. c #FD8C09",
"W. c #E29707",
"Q. c #E49708",
"!. c #F49506",
"~. c #FC9206",
"^. c #F69C07",
"/. c #FB9D07",
"(. c #F5920A",
"). c #FA9509",
"_. c #F69C09",
"`. c #FB9B09",
"'. c #E5A40A",
"]. c #F7A405",
"[. c #FCA307",
"{. c #FCAC06",
"}. c #F6A60B",
"|. c #FDA30B",
" X c #FCAC0A",
".X c #FCB406",
"XX c #FDBC05",
"oX c #FBB308",
"OX c #FABE0A",
"+X c #F3AC16",
"@X c #FDB914",
"#X c #FCC505",
"$X c #FDCA05",
"%X c #FCCF0D",
"&X c #FED404",
"*X c #FEDA04",
"=X c #FCD40A",
"-X c #FFCA12",
";X c #FFC31A",
":X c #FEE41A",
/* pixels */
"                                                                ",
"                                                                ",
"                            .                                   ",
"                        .       . .                             ",
"                            - = X X O O O                       ",
"                    .   O 5 e 4   , $ % X ; + + .               ",
"                  .   - e r r s V J j       % $ X + .           ",
"                  .     8 v ! E f./.M.-.~ t 4 7                 ",
"            .   - +   0 N m c.|.&X&X$XXX{.{.W.r.L i < O         ",
"            .   4 q 6 L 2.A. X%X&X&X#X].Q.W.XX.XB.C   ; .       ",
"        O .     > k l &.E.@X=X&X*XXXS.`.A.$.=.|..XY.B   #       ",
"    . O     = O + c b C.|.).[./.!.!.z.S.I.[.].A.$XXXF.l   +     ",
".   . < 6 = 4 y u h ^ R.|.I.) T T / *.m F a.~.j.F.{.I.3.j   =   ",
"        4 y s y c K B.|.{.XXXXJ.A.U.C.a.>.M.U.`.oX/.)..Xu.  $ O ",
"4 u d d d ` 9.9...;.(.E.~..X*X$XU.5.e.f.j.P.[.].`./.#X.X).y   : ",
"4 y N I { P ` -.u.L.}._.x.4.3.z.z.8.W 8 t o.C.u.f.T..X`.E.-.  o ",
"  X > 4 4 8 c ' +.).&X#X].G.~.Z.D..XS.~ ' b.C.O.Y a.x.{.oXg.> $ ",
", 6 4 9 f P '  .=.~.$X[.XX*X&X{.E.J.m.l.D.B.p.0.N L ^ {.&XN.5 $ ",
"w c V A P ` ' :.<.Y.&X$X.X$X).~./.x.H G h.%.m { @.,.6. X*XR.7 X ",
"> 8 8 8 r N P D x ,..X$X[.U.F.d.e.Q n G z z o.t.#.o.h.=X#X).g   ",
"+ 4 8 p B P A c C +./.XX^.S.].J.a.W.} t I n X.J [ U s.&X&X'.    ",
", 5 8 p M B B D  .q.'.OX`.oX{.{.{.XXM.>.Y.n.&.1.t.R ].:X-X]   * ",
"    - 4 7 u d S ] [ H._.Z.oXXX.X`.z.^ >.1.u.y.,.K..X&X:XL.- 3 = ",
"              - 5 i _ h.k.oXXX~.~.c.%.~ $.2.V.(.P..X$X.XC   # . ",
"      .   .     X     ` F.).~.I.7.( / / x.8.M.M.C.;X|.P   *     ",
"              . . + &   ` F.G.I.I.D.v.~.I.F.Y.).XX+X|   & . X   ",
"                    O @   d i.R.^.{. XoXoX}.|. XH.5   2 .       ",
"                      . 1     Z :.9.M.Y.(.M.w.Z +   * .         ",
"                          + X       , a r 4     X # .           ",
"                            . # ; &         * ; .               ",
"                                    O = = O                     ",
"                                                                "
};
