/* XPM */
static char *wall21699616658[] = {
/* columns rows colors chars-per-pixel */
"32 32 213 2 ",
"   c #000000",
".  c #010D01",
"X  c #001A01",
"o  c #012700",
"O  c #013600",
"+  c #00251D",
"@  c #083C1D",
"#  c #15301F",
"$  c #000025",
"%  c #000D25",
"&  c #000628",
"*  c #011523",
"=  c #011C24",
"-  c #021E29",
";  c #00162E",
":  c #000C36",
">  c #012324",
",  c #012C23",
"<  c #042828",
"1  c #013424",
"2  c #023C23",
"3  c #0C3C23",
"4  c #013A29",
"5  c #0F3123",
"6  c #143922",
"7  c #022939",
"8  c #1E3C34",
"9  c #14292C",
"0  c #263830",
"q  c #014901",
"w  c #005D01",
"e  c #015402",
"r  c #1C451B",
"t  c #395D1D",
"y  c #006400",
"u  c #016A03",
"i  c #3F621E",
"p  c #044324",
"a  c #0C4223",
"s  c #094B27",
"d  c #144323",
"f  c #1C4524",
"g  c #1B4A23",
"h  c #164825",
"j  c #034134",
"k  c #10453B",
"l  c #075B29",
"z  c #294E23",
"x  c #345A27",
"c  c #234434",
"v  c #244A33",
"b  c #385D32",
"n  c #265531",
"m  c #0A672B",
"M  c #097B2F",
"N  c #0A732E",
"B  c #1F6934",
"V  c #007035",
"C  c #3C6B29",
"Z  c #3A6526",
"A  c #3F6C35",
"S  c #266A37",
"D  c #41651F",
"F  c #456923",
"G  c #437429",
"H  c #497526",
"J  c #587722",
"K  c #587432",
"L  c #456A36",
"P  c #607F21",
"I  c #6D7B7C",
"U  c #019D0E",
"Y  c #009400",
"T  c #009E12",
"R  c #00A20F",
"E  c #01A113",
"W  c #00812F",
"Q  c #008A33",
"!  c #0E8B33",
"~  c #178C35",
"^  c #0A9935",
"/  c #009E3B",
"(  c #0A9D3A",
")  c #0A953A",
"_  c #169A3A",
"`  c #25873E",
"'  c #01A437",
"]  c #02A43B",
"[  c #0CA43A",
"{  c #03A93C",
"}  c #0BA83C",
"|  c #05A637",
" . c #15A43B",
".. c #1CA63B",
"X. c #19A93B",
"o. c #02A62B",
"O. c #2AAB36",
"+. c #23A837",
"@. c #31AB35",
"#. c #5F9C00",
"$. c #6D8C1D",
"%. c #64851D",
"&. c #74901F",
"*. c #698902",
"=. c #4DB200",
"-. c #7ABD01",
";. c #52892A",
":. c #518428",
">. c #5B9429",
",. c #619427",
"<. c #63982A",
"1. c #669B2A",
"2. c #619934",
"3. c #54B42F",
"4. c #41AD35",
"5. c #4EB132",
"6. c #53B231",
"7. c #5CB430",
"8. c #57A82F",
"9. c #6CA527",
"0. c #74AD25",
"q. c #73AB2A",
"w. c #75A126",
"e. c #6DBB2D",
"r. c #68B82B",
"t. c #7EBD25",
"y. c #7AB429",
"u. c #7CBC2A",
"i. c #75B828",
"p. c #64BA32",
"a. c #6DB339",
"s. c #7DC025",
"d. c #7CC12A",
"f. c #7BC13C",
"g. c #009F45",
"h. c #1E9440",
"j. c #259A41",
"k. c #01A547",
"l. c #0DA741",
"z. c #06A947",
"x. c #1BA540",
"c. c #1BAA42",
"v. c #13A944",
"b. c #22A541",
"n. c #22AC45",
"m. c #2BAC45",
"M. c #2AAE4A",
"N. c #24AD4C",
"B. c #30A743",
"V. c #24B148",
"C. c #46AD44",
"Z. c #77847C",
"A. c #629471",
"S. c #73AF7B",
"D. c #6CB77A",
"F. c #66B57E",
"G. c #71B97B",
"H. c #73B47E",
"J. c #82BF00",
"K. c #87A61B",
"L. c #9AB714",
"P. c #97B418",
"I. c #84BE24",
"U. c #82BB2B",
"Y. c #88BF29",
"T. c #99B728",
"R. c #8AA928",
"E. c #88C802",
"W. c #8EC51F",
"Q. c #93C91D",
"!. c #9ACB1B",
"~. c #9DCC16",
"^. c #AACA07",
"/. c #B0CF0F",
"(. c #ADD30C",
"). c #B3D403",
"_. c #BCD702",
"`. c #B7DA03",
"'. c #BEDA02",
"]. c #B2D40B",
"[. c #B9D70B",
"{. c #BBDA0A",
"}. c #A3CE15",
"|. c #A2CE18",
" X c #A6C513",
".X c #A6D015",
"XX c #ADD417",
"oX c #BADA1C",
"OX c #85C124",
"+X c #89C424",
"@X c #86C22C",
"#X c #89C32B",
"$X c #94C620",
"%X c #95CD21",
"&X c #8CC733",
"*X c #A1D221",
"=X c #C1DC02",
"-X c #C0DA1A",
";X c #C0D717",
":X c #C3E101",
">X c #C5E41C",
",X c #C2DF24",
"<X c #80BE7B",
"1X c #92AE79",
"2X c #97C876",
"3X c #A4CD77",
"4X c #A4CB78",
"5X c #A8D379",
"6X c #C6DC6F",
"7X c #C7DD71",
"8X c #CAE16C",
"9X c #CAE071",
"0X c #FEFEFE",
/* pixels */
"0X0X0X0X0X0X0X0X0X0X0X0X0X0X0X0X0X0X0X0X0X0X0X0X0X0X0X0X0X0X0X0X",
"A.G.D.G.D.G.3X3X3X4X3X3X4X5X1XZ.Z.Z.H.G.D.G.F.2X7X6X6X8X1XI Z.S.",
"e o.T E T =.J.-.-.-.-.-.E.#.o   q Y E E E E U E.'.`.'.=X^.X   w ",
"u M...c.} a.&X@X&X@X@X&X2.< 9 B x.c... .b.x.b.XX-X-X-X-X>XR.; 0 ",
"u b.] ] +.s.OXOXI.OX#X;.- , m ] ' ] ] ] } ] 3.'.'.'.'.'.'.{.D > ",
"y n.[ ] 6.OXI.I.@XU.C = 5 m { ' ] ] ] } +./ d.=X=X=X'.'.'.=XL.= ",
"y n.[ ] e.+XI.+Xy.Z = @ l [ } [ }  .' ] ] / !.=X_.'.'.'.'.'.=XJ ",
"w M.] O.I.Y.#Xq.d 1 6 a  .' ] ] ] ] ] O.5.p.|.=X'.'.'.=X'.'.:X X",
"e M./ 7.+XOX<.< 4 a + W { ' +.4.6.e.u.OX+X+XOX.X'.=X'.'.'.=X'.=X",
"q n.[ OX@X:.* 2 p 2 1 8.d.i.s.OX+X+XOXOXI.I.OXI.$X].=X=X'.{.=X=X",
"O k.p.U.Z * a 2 2 3 , H +X+XI.I.OXOXI.OXI.+XOXY.OXOXQ.(.{.=X=X'.",
"  C.9.d < a 2 2 2 2 a = Z y.+X+XI.I.I.OXI.OXOXOXOXOXI.I.W.|.]._.",
"  A 6 3 g d d d p 2 4 a , 4 :.y.+X+XOXOXI.I.OXOX@XOXOXOXI.t.I.Q.",
"  7 $ * $ $ $ = 1 d f d a 2 = 4 G 9.u.+X+X+XOXOXI.I.I.OXI.+XI.t.",
"  K P.L.P.K.&.J z - $ * 1 f g 3 + = h G <.q.t.+X+X+XOXOX+X+X+X+X",
"  a.'.:X=X:X:X=X). XK.P g & $ 1 f g 4 = * , g Z :.,.9.0.0.0.0.0.",
". g.5._.=X_.'.=X=X=X:X=X].L.$.x & % 2 g d 2 1 , = * = < 1 2 1 > ",
"X B.] 3.`.=X'.'.'.{.'._.=X:X=X_.L.$.p $ < z a 3 a d a a 2 1 3 a ",
"  b.../ 3._.=X'.=X'.'.=X'._.'.'.:X=X].K.x $ < f 2 2 2 2 6 4 0.).",
"  j.{ n.] 7.'.'.'.=X_.'.=X'.=X_.'.'.=X=X].P.F $ 1 d 2 p 6 V p.=X",
"  ` ' l.M.] r.'.'.'.'.=X'.=X'.=X'.'._.{.'.=X[.K.f = d p 9 Q O.].",
"  S { ' l.M./ e.'.'.'.'.'.'.'._._.=X'.=X=X_.=X:X/.J * d + ~ ' !.",
"  c ( { ] } M.] s.'.'.'.=X'.'.'.=X'.'.'.=X=X'._.'.{.J , # ~ ] e.",
"  0 M { ] ] l.N.' W.=X{.'._.=X'.=X_.'.=X_.=X'.'.'.=X/.g > ! { B.",
"  c p [ ' ' ' v.M.] $X=X{.'.'.=X=X=X=X=X=X=X:X'.'.'.{.F $ ! V.k.",
"  v , M { ] ] ' v.c.] ~.=X=X=X'.`.].XX}.|.!.Q.$X$XQ.w.1 + j.c.' ",
"  c 4 p [ ' ' { ] c.v.k.}.[.|.W.+XI.t.t.t.t.I.OX#X>.< 2 8 _ {  .",
"*.: g > N { ] ] { { c.k.3.+Xt.I.I.OX+XI.+X+X+X#X:.= @ n 8 Q { [ ",
").b 1 3 1 ^ { ] ] ] | ] f.OXI.OXI.I.OXI.OX#XU.C = g k j , ) { | ",
"=XT.% d , m l.] ' | ] @.OX&XOXOX+XOXI.+X+X0.z 1 , 7 L t 1 ^ [ ] ",
"_.,X%.% d , ! { ]  .' 7.+X@X&XOXW.I.OX#X,.2 = * K T.).<.= _ ] ' ",
"`.,X/.4 2 1 s ] { ] ' u.I.I.@X&Xt.+Xd.H $ $ i T.oX:X*X;.1  .] @."
};
