/* XPM */
static char *_5c9df5c29bd495c8d1fa8eb685ffcd5ORdxWtjuHeyPdGQe[] = {
/* columns rows colors chars-per-pixel */
"32 32 155 2 ",
"   c #0F88BF",
".  c #0082C6",
"X  c #0A87C7",
"o  c #028CC7",
"O  c #0C88C6",
"+  c #0084CB",
"@  c #038BCD",
"#  c #1489C5",
"$  c #0C93CA",
"%  c #1B92CD",
"&  c #0084D1",
"*  c #018CD4",
"=  c #0B8ED6",
"-  c #018EDB",
";  c #0893D6",
":  c #0193DC",
">  c #0894DF",
",  c #039ADD",
"<  c #0E9CDC",
"1  c #1194D3",
"2  c #1195DD",
"3  c #139EDC",
"4  c #2190C5",
"5  c #2C96C6",
"6  c #2195CE",
"7  c #219ED8",
"8  c #00A9D2",
"9  c #01A2DB",
"0  c #09A6DD",
"q  c #05ACD8",
"w  c #0BB0DD",
"e  c #31A0D5",
"r  c #3DA7DB",
"t  c #38ACDD",
"y  c #34A3DB",
"u  c #0294E3",
"i  c #0A95E2",
"p  c #049BE3",
"a  c #0C9AE5",
"s  c #029AEA",
"d  c #0A9BEA",
"f  c #019DF0",
"g  c #05A3E6",
"h  c #0AA4E4",
"j  c #03ADE4",
"k  c #0EACE2",
"l  c #04A6E9",
"z  c #0BA6EA",
"x  c #03ACEB",
"c  c #08ACE9",
"v  c #12A6E3",
"b  c #1CA4E0",
"n  c #1AA9E3",
"m  c #11A1E9",
"M  c #10A9EF",
"N  c #0CB2E3",
"B  c #04B1EE",
"V  c #0AB3EE",
"C  c #11B3E4",
"Z  c #04AFF1",
"A  c #0AAEF0",
"S  c #10ADF0",
"D  c #01B0F3",
"F  c #09B1F0",
"G  c #0FBDF2",
"H  c #22A4E0",
"J  c #26AFE6",
"K  c #2DAFE9",
"L  c #32AEE4",
"P  c #3DACE1",
"I  c #3BAFEC",
"U  c #27B1EF",
"Y  c #31B4EA",
"T  c #36B8EC",
"R  c #38BCFA",
"E  c #43A7DA",
"W  c #44AADB",
"Q  c #54AFDB",
"!  c #44B3EC",
"~  c #46B8EC",
"^  c #56BDEA",
"/  c #59BBE8",
"(  c #43BCF5",
")  c #54BDF4",
"_  c #55C0EE",
"`  c #5FC0ED",
"'  c #43C5FF",
"]  c #5AC5F3",
"[  c #57C9FF",
"{  c #60C2EF",
"}  c #67C7F7",
"|  c #6EC4F7",
" . c #6DC9F4",
".. c #6BCEF8",
"X. c #74CCF4",
"o. c #79C8F1",
"O. c #70CDF8",
"+. c #7BCFFB",
"@. c #6BD1FF",
"#. c #74D5FF",
"$. c #78D0F8",
"%. c #7CDCFF",
"&. c #9ECBE2",
"*. c #95CEEC",
"=. c #9ACEE9",
"-. c #96D1ED",
";. c #9AD1EC",
":. c #97CFF1",
">. c #9CCDF3",
",. c #99CFFB",
"<. c #85D5FF",
"1. c #8CD5FC",
"2. c #83DDFF",
"3. c #8BDDFF",
"4. c #94D5F6",
"5. c #9CD3F5",
"6. c #9CDAF7",
"7. c #95D4FC",
"8. c #9DD5F9",
"9. c #93DBFD",
"0. c #9AD9FC",
"q. c #98DAFD",
"w. c #99D9FC",
"e. c #9DD9FE",
"r. c #9CDBFE",
"t. c #9EDAFF",
"y. c #99DEFD",
"u. c #98DCFF",
"i. c #9ADBF9",
"p. c #A7CFE9",
"a. c #A8CDE8",
"s. c #A0D2EB",
"d. c #A0D1EF",
"f. c #A4D1EE",
"g. c #A1CFF3",
"h. c #A5CCF3",
"j. c #A3CFF4",
"k. c #ACCFF7",
"l. c #A0D3F2",
"z. c #A4D2F3",
"x. c #A1D4F1",
"c. c #A7D4F5",
"v. c #A9D4F6",
"b. c #A0D8F9",
"n. c #A2DBF9",
"m. c #A1D9FA",
"M. c #A2DAFB",
"N. c #A6DBFA",
"B. c #A3DBFC",
"V. c #A4DCFD",
"C. c #92E0FF",
"Z. c #93E2FF",
"A. c #9DE1FF",
"S. c #9FE0FE",
"D. c #9BE4FF",
/* pixels */
"2 : s s * ! 1.=.;.-.5.8.5.>.h.k.5.5.5.5.5.5.b.b.*.:.5.b.n.b.6.5.",
"= > s u * y o.6.-.-.5.8.5.5.g.j.5.5.5.5.5.5.b.6.n.b.6.5.5.5.5.5.",
"& i s : * % Q 9.:.5.5.5.6.6.5.:.5.5.5.5.5.5.6.6.V.n.6.5.:.5.5.6.",
"& a u - > O 5  .7.0.8.5.5.6.4.4.5.5.5.5.5.5.6.6.5.5.5.5.5.6.b.n.",
"* a - - a @   t 1.q.e.;.*.5.w.4.5.5.5.5.6.6.6.6.:.5.5.6.8.8.6.6.",
": u - u a ; o $ | <.u.5.*.5.0.7.5.5.5.5.5.6.6.6.5.6.b.n.n.5.5.*.",
": - u u - > , o E  .9.5.=.5.8.7.5.5.5.5.5.5.6.6.8.8.8.6.6.5.5.5.",
": * i i & i z @ 4 / 3.6.;.d.5.,.5.5.5.5.5.5.6.6.6.5.5.:.5.6.n.B.",
": : : : : : : : @ 7 _ 3.u.*.=.N.,.8.e.e.e.0.4.4.&.s.n.S.C.2.#.@.",
": : : : : : : : @ 1 P O.9.i.5.*.v.c.z.l.6.6.i.i.i.9.1.+.} ) ! I ",
": : : : : : : : - * % W X.D.S.*.a.p.f.x.6.w.9.9.#...] ~ L H 3 < ",
": : : : : : : : u : @ # E $.C.9.5.8.0.9.<.O.{ ^ T Y J n v h g l ",
": : : : : : : : u p : . # r `  .%.%.@.[ ( K b 3 h h h l x x Z D ",
": : : : : : : : - u d : + X 6 e ' R U n h g l A l x x B B B x x ",
": : : : : : : : * : s s u & @ 1 v h , 9 9 j V G Z B B B x j j j ",
": : : : : : : : 2 * - s f u i m 0 k k C N w q 8 x x x j j j N N ",
": : : : : : : : : : > - - : g c c c c c c c c c c c c c c c c c ",
": : : : : : : : : : > - : , g c c c c c c c c c c c c c c c c c ",
": : : : : : : : : : > - : p l c c c c c c c c c c c c c c c c c ",
": : : : : : : : : > : > > p l c c c c c c c c c c c c c c c c c ",
": : : : : : : : : : : > i z c A c c c c c c c c c c c c c c c c ",
": : : : : : : : : : : > a z A A c c c c c c c c c c c c c c c c ",
": : : : : : : : : : : > a z A A c c c c c c c c c c c c c c c c ",
": : : : : : : : : : : i m M A A c c c c c c c c c c c c c c c c ",
": : : : : : : : * * : p c F B x c c c c c c c c c c c c c c c c ",
": : : : : : : : * : : g c F x x c c c c c c c c c c c c c c c c ",
": : : : : : : : : : , g c c x x c c c c c c c c c c c c c c c c ",
": : : : : : : : : > p z z c x x c c c c c c c c c c c c c c c c ",
": : : : : : : : : i h z c c c c c c c c c c c c c c c c c c c c ",
": : : : : : : : , p z z c c c c c c c c c c c c c c c c c c c c ",
": : : : : : : : , h z c z c c z c c c c c c c c c c c c c c c c ",
": : : : : : : : p h z S z c c z c c c c c c c c c c c c c c c c "
};
